M48
; DRILL file {KiCad 7.0.8} date Fri Nov 17 11:36:38 2023
; FORMAT={-:-/ absolute / inch / decimal}
; #@! TF.CreationDate,2023-11-17T11:36:38-05:00
; #@! TF.GenerationSoftware,Kicad,Pcbnew,7.0.8
; #@! TF.FileFunction,Plated,1,2,PTH
FMAT,2
INCH
; #@! TA.AperFunction,Plated,PTH,ViaDrill
T1C0.0256
; #@! TA.AperFunction,Plated,PTH,ComponentDrill
T2C0.0276
; #@! TA.AperFunction,Plated,PTH,ComponentDrill
T3C0.0354
; #@! TA.AperFunction,Plated,PTH,ComponentDrill
T4C0.0394
; #@! TA.AperFunction,Plated,PTH,ComponentDrill
T5C0.0402
; #@! TA.AperFunction,Plated,PTH,ComponentDrill
T6C0.0472
%
G90
G05
T1
X4.68Y-2.68
X4.69Y-2.24
T2
X4.21Y-2.48
X4.31Y-2.58
X4.41Y-2.48
T3
X4.65Y-3.83
X4.6502Y-3.2
X4.6602Y-3.51
X4.67Y-2.9
X4.75Y-3.83
X4.7502Y-3.2
X4.7602Y-3.51
X4.77Y-2.9
T4
X1.5075Y-3.2
X1.52Y-2.15
X1.6075Y-3.2
X1.62Y-2.15
X1.7075Y-3.2
X1.72Y-2.15
X1.8075Y-3.2
X1.82Y-2.15
X1.951Y-3.6804
X1.951Y-3.7804
X1.951Y-3.8804
X1.951Y-3.9804
X2.9094Y-4.211
X3.0094Y-4.211
X3.1094Y-4.211
X4.78Y-2.39
X4.78Y-2.49
T5
X2.55Y-2.3292
X2.55Y-2.4292
X2.55Y-2.5292
X2.55Y-2.6292
X2.55Y-2.7292
X2.55Y-2.8292
X2.55Y-2.9292
X2.55Y-3.0292
X2.55Y-3.1292
X2.55Y-3.2292
X2.55Y-3.3292
X2.55Y-3.4292
X2.55Y-3.5292
X2.55Y-3.6292
X2.55Y-3.7292
X3.55Y-2.3292
X3.55Y-2.4292
X3.55Y-2.5292
X3.55Y-2.6292
X3.55Y-2.7292
X3.55Y-2.8292
X3.55Y-2.9292
X3.55Y-3.0292
X3.55Y-3.1292
X3.55Y-3.2292
X3.55Y-3.3292
X3.55Y-3.4292
X3.55Y-3.5292
X3.55Y-3.6292
X3.55Y-3.7292
T6
X3.7732Y-2.5968
X3.95Y-3.0136
X3.95Y-3.2518
X3.95Y-3.49
X3.95Y-3.7282
X3.9732Y-2.5968
X4.15Y-3.0136
X4.15Y-3.2518
X4.15Y-3.49
X4.15Y-3.7282
T4
G00X4.1638Y-1.9594
M15
G01X4.1638Y-1.8806
M16
G05
G00X4.3213Y-1.735
M15
G01X4.2425Y-1.735
M16
G05
G00X4.4Y-1.9594
M15
G01X4.4Y-1.8806
M16
G05
T0
M30
