%TF.GenerationSoftware,KiCad,Pcbnew,7.0.8*%
%TF.CreationDate,2023-11-17T11:36:36-05:00*%
%TF.ProjectId,PCB Basurainador,50434220-4261-4737-9572-61696e61646f,rev?*%
%TF.SameCoordinates,Original*%
%TF.FileFunction,Soldermask,Top*%
%TF.FilePolarity,Negative*%
%FSLAX46Y46*%
G04 Gerber Fmt 4.6, Leading zero omitted, Abs format (unit mm)*
G04 Created by KiCad (PCBNEW 7.0.8) date 2023-11-17 11:36:36*
%MOMM*%
%LPD*%
G01*
G04 APERTURE LIST*
G04 Aperture macros list*
%AMRoundRect*
0 Rectangle with rounded corners*
0 $1 Rounding radius*
0 $2 $3 $4 $5 $6 $7 $8 $9 X,Y pos of 4 corners*
0 Add a 4 corners polygon primitive as box body*
4,1,4,$2,$3,$4,$5,$6,$7,$8,$9,$2,$3,0*
0 Add four circle primitives for the rounded corners*
1,1,$1+$1,$2,$3*
1,1,$1+$1,$4,$5*
1,1,$1+$1,$6,$7*
1,1,$1+$1,$8,$9*
0 Add four rect primitives between the rounded corners*
20,1,$1+$1,$2,$3,$4,$5,0*
20,1,$1+$1,$4,$5,$6,$7,0*
20,1,$1+$1,$6,$7,$8,$9,0*
20,1,$1+$1,$8,$9,$2,$3,0*%
G04 Aperture macros list end*
%ADD10C,2.400000*%
%ADD11O,2.400000X2.400000*%
%ADD12R,1.800000X1.800000*%
%ADD13C,1.800000*%
%ADD14O,1.600000X1.200000*%
%ADD15O,1.200000X1.200000*%
%ADD16C,1.700000*%
%ADD17O,1.700000X1.700000*%
%ADD18C,3.000000*%
%ADD19RoundRect,0.102000X-1.000000X-1.000000X1.000000X-1.000000X1.000000X1.000000X-1.000000X1.000000X0*%
%ADD20C,2.204000*%
%ADD21R,1.700000X1.700000*%
%ADD22R,3.500000X3.500000*%
%ADD23RoundRect,0.750000X0.750000X1.000000X-0.750000X1.000000X-0.750000X-1.000000X0.750000X-1.000000X0*%
%ADD24RoundRect,0.875000X0.875000X0.875000X-0.875000X0.875000X-0.875000X-0.875000X0.875000X-0.875000X0*%
G04 APERTURE END LIST*
D10*
%TO.C,R5*%
X100919000Y-65959000D03*
D11*
X95839000Y-65959000D03*
%TD*%
D10*
%TO.C,R1*%
X105410000Y-94696000D03*
D11*
X100330000Y-94696000D03*
%TD*%
D10*
%TO.C,R2*%
X105410000Y-88646000D03*
D11*
X100330000Y-88646000D03*
%TD*%
D12*
%TO.C,D2*%
X120909000Y-89154000D03*
D13*
X118369000Y-89154000D03*
%TD*%
D14*
%TO.C,T1*%
X106934000Y-62992000D03*
D15*
X109474000Y-65532000D03*
X112014000Y-62992000D03*
%TD*%
D16*
%TO.C,U2*%
X38290500Y-81280000D03*
D17*
X40830500Y-81280000D03*
X43370500Y-81280000D03*
X45910500Y-81280000D03*
D16*
X38608000Y-54610000D03*
D17*
X41148000Y-54610000D03*
X43688000Y-54610000D03*
X46228000Y-54610000D03*
%TD*%
D18*
%TO.C,U1*%
X65190000Y-51201000D03*
X65190000Y-98151000D03*
X89700000Y-51201000D03*
X89700000Y-98151000D03*
D19*
X64770000Y-59161000D03*
D20*
X64770000Y-61701000D03*
X64770000Y-64241000D03*
X64770000Y-66781000D03*
X64770000Y-69321000D03*
X64770000Y-71861000D03*
X64770000Y-74401000D03*
X64770000Y-76941000D03*
X64770000Y-79481000D03*
X64770000Y-82021000D03*
X64770000Y-84561000D03*
X64770000Y-87101000D03*
X64770000Y-89641000D03*
X64770000Y-92181000D03*
X64770000Y-94721000D03*
X90170000Y-94721000D03*
X90170000Y-92181000D03*
X90170000Y-89641000D03*
X90170000Y-87101000D03*
X90170000Y-84561000D03*
X90170000Y-82021000D03*
X90170000Y-79481000D03*
X90170000Y-76941000D03*
X90170000Y-74401000D03*
X90170000Y-71861000D03*
X90170000Y-69321000D03*
X90170000Y-66781000D03*
X90170000Y-64241000D03*
X90170000Y-61701000D03*
X90170000Y-59161000D03*
%TD*%
D10*
%TO.C,R4*%
X105410000Y-76546000D03*
D11*
X100330000Y-76546000D03*
%TD*%
D12*
%TO.C,D4*%
X121158000Y-73660000D03*
D13*
X118618000Y-73660000D03*
%TD*%
D21*
%TO.C,LCD1*%
X49555000Y-93482000D03*
D17*
X49555000Y-96022000D03*
X49555000Y-98562000D03*
X49555000Y-101102000D03*
%TD*%
D12*
%TO.C,D3*%
X120655000Y-81280000D03*
D13*
X118115000Y-81280000D03*
%TD*%
D22*
%TO.C,J1*%
X105760000Y-48768000D03*
D23*
X111760000Y-48768000D03*
D24*
X108760000Y-44068000D03*
%TD*%
D10*
%TO.C,R3*%
X105410000Y-82596000D03*
D11*
X100330000Y-82596000D03*
%TD*%
D21*
%TO.C,Parlante1*%
X121412000Y-60706000D03*
D17*
X121412000Y-63246000D03*
%TD*%
D21*
%TO.C,Servo1*%
X78979000Y-106959000D03*
D17*
X76439000Y-106959000D03*
X73899000Y-106959000D03*
%TD*%
D12*
%TO.C,D1*%
X120650000Y-97282000D03*
D13*
X118110000Y-97282000D03*
%TD*%
M02*
