%TF.GenerationSoftware,KiCad,Pcbnew,7.0.8*%
%TF.CreationDate,2023-11-17T11:36:36-05:00*%
%TF.ProjectId,PCB Basurainador,50434220-4261-4737-9572-61696e61646f,rev?*%
%TF.SameCoordinates,Original*%
%TF.FileFunction,Copper,L2,Bot*%
%TF.FilePolarity,Positive*%
%FSLAX46Y46*%
G04 Gerber Fmt 4.6, Leading zero omitted, Abs format (unit mm)*
G04 Created by KiCad (PCBNEW 7.0.8) date 2023-11-17 11:36:36*
%MOMM*%
%LPD*%
G01*
G04 APERTURE LIST*
G04 Aperture macros list*
%AMRoundRect*
0 Rectangle with rounded corners*
0 $1 Rounding radius*
0 $2 $3 $4 $5 $6 $7 $8 $9 X,Y pos of 4 corners*
0 Add a 4 corners polygon primitive as box body*
4,1,4,$2,$3,$4,$5,$6,$7,$8,$9,$2,$3,0*
0 Add four circle primitives for the rounded corners*
1,1,$1+$1,$2,$3*
1,1,$1+$1,$4,$5*
1,1,$1+$1,$6,$7*
1,1,$1+$1,$8,$9*
0 Add four rect primitives between the rounded corners*
20,1,$1+$1,$2,$3,$4,$5,0*
20,1,$1+$1,$4,$5,$6,$7,0*
20,1,$1+$1,$6,$7,$8,$9,0*
20,1,$1+$1,$8,$9,$2,$3,0*%
G04 Aperture macros list end*
%TA.AperFunction,ComponentPad*%
%ADD10C,2.400000*%
%TD*%
%TA.AperFunction,ComponentPad*%
%ADD11O,2.400000X2.400000*%
%TD*%
%TA.AperFunction,ComponentPad*%
%ADD12R,1.800000X1.800000*%
%TD*%
%TA.AperFunction,ComponentPad*%
%ADD13C,1.800000*%
%TD*%
%TA.AperFunction,ComponentPad*%
%ADD14O,1.600000X1.200000*%
%TD*%
%TA.AperFunction,ComponentPad*%
%ADD15O,1.200000X1.200000*%
%TD*%
%TA.AperFunction,ComponentPad*%
%ADD16C,1.700000*%
%TD*%
%TA.AperFunction,ComponentPad*%
%ADD17O,1.700000X1.700000*%
%TD*%
%TA.AperFunction,ComponentPad*%
%ADD18R,2.000000X2.000000*%
%TD*%
%TA.AperFunction,ComponentPad*%
%ADD19C,2.000000*%
%TD*%
%TA.AperFunction,ComponentPad*%
%ADD20R,1.700000X1.700000*%
%TD*%
%TA.AperFunction,ComponentPad*%
%ADD21R,3.500000X3.500000*%
%TD*%
%TA.AperFunction,ComponentPad*%
%ADD22RoundRect,0.750000X0.750000X1.000000X-0.750000X1.000000X-0.750000X-1.000000X0.750000X-1.000000X0*%
%TD*%
%TA.AperFunction,ComponentPad*%
%ADD23RoundRect,0.875000X0.875000X0.875000X-0.875000X0.875000X-0.875000X-0.875000X0.875000X-0.875000X0*%
%TD*%
%TA.AperFunction,ViaPad*%
%ADD24C,1.200000*%
%TD*%
%TA.AperFunction,Conductor*%
%ADD25C,0.900000*%
%TD*%
%TA.AperFunction,Conductor*%
%ADD26C,1.300000*%
%TD*%
G04 APERTURE END LIST*
D10*
%TO.P,R5,1*%
%TO.N,N/C*%
X100919000Y-65959000D03*
D11*
%TO.P,R5,2*%
X95839000Y-65959000D03*
%TD*%
D10*
%TO.P,R1,1*%
%TO.N,Net-(D1-A)*%
X105410000Y-94696000D03*
D11*
%TO.P,R1,2*%
%TO.N,/D35*%
X100330000Y-94696000D03*
%TD*%
D10*
%TO.P,R2,1*%
%TO.N,Net-(D2-A)*%
X105410000Y-88646000D03*
D11*
%TO.P,R2,2*%
%TO.N,/D34*%
X100330000Y-88646000D03*
%TD*%
D12*
%TO.P,D2,1,K*%
%TO.N,GND*%
X120909000Y-89154000D03*
D13*
%TO.P,D2,2,A*%
%TO.N,Net-(D2-A)*%
X118369000Y-89154000D03*
%TD*%
D14*
%TO.P,T1,1,E*%
%TO.N,GND*%
X106934000Y-62992000D03*
D15*
%TO.P,T1,2,B*%
%TO.N,N/C*%
X109474000Y-65532000D03*
%TO.P,T1,3,C*%
%TO.N,/P1*%
X112014000Y-62992000D03*
%TD*%
D16*
%TO.P,U2,1,S0*%
%TO.N,unconnected-(U2-S0-Pad1)*%
X38290500Y-81280000D03*
D17*
%TO.P,U2,2,S1*%
%TO.N,unconnected-(U2-S1-Pad2)*%
X40830500Y-81280000D03*
%TO.P,U2,3,~{OE}*%
%TO.N,unconnected-(U2-~{OE}-Pad3)*%
X43370500Y-81280000D03*
%TO.P,U2,4,GND*%
%TO.N,GND*%
X45910500Y-81280000D03*
D16*
%TO.P,U2,5,VDD*%
%TO.N,/D18*%
X38608000Y-54610000D03*
D17*
%TO.P,U2,6,OUT*%
%TO.N,/D5*%
X41148000Y-54610000D03*
%TO.P,U2,7,S2*%
%TO.N,/D19*%
X43688000Y-54610000D03*
%TO.P,U2,8,S3*%
%TO.N,+3V3*%
X46228000Y-54610000D03*
%TD*%
D18*
%TO.P,U1,1,3V3*%
%TO.N,+3V3*%
X64770000Y-59161000D03*
D19*
%TO.P,U1,2,GND*%
%TO.N,GND*%
X64770000Y-61701000D03*
%TO.P,U1,3,D15*%
%TO.N,unconnected-(U1-D15-Pad3)*%
X64770000Y-64241000D03*
%TO.P,U1,4,D2*%
%TO.N,unconnected-(U1-D2-Pad4)*%
X64770000Y-66781000D03*
%TO.P,U1,5,D4*%
%TO.N,unconnected-(U1-D4-Pad5)*%
X64770000Y-69321000D03*
%TO.P,U1,6,RX2*%
%TO.N,unconnected-(U1-RX2-Pad6)*%
X64770000Y-71861000D03*
%TO.P,U1,7,TX2*%
%TO.N,unconnected-(U1-TX2-Pad7)*%
X64770000Y-74401000D03*
%TO.P,U1,8,D5*%
%TO.N,/D5*%
X64770000Y-76941000D03*
%TO.P,U1,9,D18*%
%TO.N,/D18*%
X64770000Y-79481000D03*
%TO.P,U1,10,D19*%
%TO.N,/D19*%
X64770000Y-82021000D03*
%TO.P,U1,11,D21*%
%TO.N,/D21*%
X64770000Y-84561000D03*
%TO.P,U1,12,RX0*%
%TO.N,unconnected-(U1-RX0-Pad12)*%
X64770000Y-87101000D03*
%TO.P,U1,13,TX0*%
%TO.N,unconnected-(U1-TX0-Pad13)*%
X64770000Y-89641000D03*
%TO.P,U1,14,D22*%
%TO.N,/D22*%
X64770000Y-92181000D03*
%TO.P,U1,15,D23*%
%TO.N,unconnected-(U1-D23-Pad15)*%
X64770000Y-94721000D03*
%TO.P,U1,16,EN*%
%TO.N,unconnected-(U1-EN-Pad16)*%
X90170000Y-94721000D03*
%TO.P,U1,17,VP*%
%TO.N,unconnected-(U1-VP-Pad17)*%
X90170000Y-92181000D03*
%TO.P,U1,18,VN*%
%TO.N,unconnected-(U1-VN-Pad18)*%
X90170000Y-89641000D03*
%TO.P,U1,19,D34*%
%TO.N,/D35*%
X90170000Y-87101000D03*
%TO.P,U1,20,D35*%
%TO.N,/D34*%
X90170000Y-84561000D03*
%TO.P,U1,21,D32*%
%TO.N,/D33*%
X90170000Y-82021000D03*
%TO.P,U1,22,D33*%
%TO.N,/D32*%
X90170000Y-79481000D03*
%TO.P,U1,23,D25*%
%TO.N,unconnected-(U1-D25-Pad23)*%
X90170000Y-76941000D03*
%TO.P,U1,24,D26*%
%TO.N,N/C*%
X90170000Y-74401000D03*
%TO.P,U1,25,D27*%
%TO.N,unconnected-(U1-D27-Pad25)*%
X90170000Y-71861000D03*
%TO.P,U1,26,D14*%
%TO.N,/D14*%
X90170000Y-69321000D03*
%TO.P,U1,27,D12*%
%TO.N,unconnected-(U1-D12-Pad27)*%
X90170000Y-66781000D03*
%TO.P,U1,28,D13*%
%TO.N,N/C*%
X90170000Y-64241000D03*
%TO.P,U1,29,GND*%
%TO.N,GND*%
X90170000Y-61701000D03*
%TO.P,U1,30,VIN*%
%TO.N,+5V*%
X90170000Y-59161000D03*
%TD*%
D10*
%TO.P,R4,1*%
%TO.N,Net-(D4-A)*%
X105410000Y-76546000D03*
D11*
%TO.P,R4,2*%
%TO.N,/D32*%
X100330000Y-76546000D03*
%TD*%
D12*
%TO.P,D4,1,K*%
%TO.N,GND*%
X121158000Y-73660000D03*
D13*
%TO.P,D4,2,A*%
%TO.N,Net-(D4-A)*%
X118618000Y-73660000D03*
%TD*%
D20*
%TO.P,LCD1,1,Pin_1*%
%TO.N,GND*%
X49555000Y-93482000D03*
D17*
%TO.P,LCD1,2,Pin_2*%
%TO.N,+5V*%
X49555000Y-96022000D03*
%TO.P,LCD1,3,Pin_3*%
%TO.N,/D21*%
X49555000Y-98562000D03*
%TO.P,LCD1,4,Pin_4*%
%TO.N,/D22*%
X49555000Y-101102000D03*
%TD*%
D12*
%TO.P,D3,1,K*%
%TO.N,GND*%
X120655000Y-81280000D03*
D13*
%TO.P,D3,2,A*%
%TO.N,Net-(D3-A)*%
X118115000Y-81280000D03*
%TD*%
D21*
%TO.P,J1,1*%
%TO.N,+5V*%
X105760000Y-48768000D03*
D22*
%TO.P,J1,2*%
%TO.N,GND*%
X111760000Y-48768000D03*
D23*
%TO.P,J1,3*%
X108760000Y-44068000D03*
%TD*%
D10*
%TO.P,R3,1*%
%TO.N,Net-(D3-A)*%
X105410000Y-82596000D03*
D11*
%TO.P,R3,2*%
%TO.N,/D33*%
X100330000Y-82596000D03*
%TD*%
D20*
%TO.P,Parlante1,1,Pin_1*%
%TO.N,+5V*%
X121412000Y-60706000D03*
D17*
%TO.P,Parlante1,2,Pin_2*%
%TO.N,/P1*%
X121412000Y-63246000D03*
%TD*%
D20*
%TO.P,Servo1,1,Pin_1*%
%TO.N,GND*%
X78979000Y-106959000D03*
D17*
%TO.P,Servo1,2,Pin_2*%
%TO.N,+5V*%
X76439000Y-106959000D03*
%TO.P,Servo1,3,Pin_3*%
%TO.N,/D14*%
X73899000Y-106959000D03*
%TD*%
D12*
%TO.P,D1,1,K*%
%TO.N,GND*%
X120650000Y-97282000D03*
D13*
%TO.P,D1,2,A*%
%TO.N,Net-(D1-A)*%
X118110000Y-97282000D03*
%TD*%
D24*
%TO.N,GND*%
X118872000Y-68072000D03*
X119126000Y-56896000D03*
%TD*%
D25*
%TO.N,*%
X91715000Y-74401000D02*
X95839000Y-70277000D01*
X95839000Y-70277000D02*
X95839000Y-65959000D01*
X90170000Y-74401000D02*
X91715000Y-74401000D01*
X101346000Y-65532000D02*
X100919000Y-65959000D01*
X109474000Y-65532000D02*
X101346000Y-65532000D01*
%TO.N,/D21*%
X51298000Y-98562000D02*
X49555000Y-98562000D01*
X57658000Y-88900000D02*
X57658000Y-92202000D01*
X61997000Y-84561000D02*
X57658000Y-88900000D01*
X57658000Y-92202000D02*
X51298000Y-98562000D01*
X64770000Y-84561000D02*
X61997000Y-84561000D01*
%TO.N,/D22*%
X52568000Y-101102000D02*
X49555000Y-101102000D01*
X61489000Y-92181000D02*
X52568000Y-101102000D01*
X64770000Y-92181000D02*
X61489000Y-92181000D01*
D26*
%TO.N,+5V*%
X49530000Y-109474000D02*
X75184000Y-109474000D01*
X42164000Y-102108000D02*
X49530000Y-109474000D01*
X42164000Y-93726000D02*
X42164000Y-102108000D01*
X75184000Y-109474000D02*
X76439000Y-108219000D01*
X40386000Y-91948000D02*
X42164000Y-93726000D01*
X76439000Y-108219000D02*
X76439000Y-106959000D01*
D25*
%TO.N,/D18*%
X61193000Y-79481000D02*
X64770000Y-79481000D01*
X38608000Y-54610000D02*
X38608000Y-56896000D01*
X38608000Y-56896000D02*
X61193000Y-79481000D01*
%TO.N,/D19*%
X40894000Y-51054000D02*
X43688000Y-53848000D01*
X43688000Y-53848000D02*
X43688000Y-54610000D01*
X37846000Y-51054000D02*
X40894000Y-51054000D01*
X35814000Y-53086000D02*
X37846000Y-51054000D01*
X59923000Y-82021000D02*
X35814000Y-57912000D01*
X35814000Y-57912000D02*
X35814000Y-53086000D01*
X64770000Y-82021000D02*
X59923000Y-82021000D01*
%TO.N,/D5*%
X62209000Y-76941000D02*
X64770000Y-76941000D01*
X41148000Y-55880000D02*
X62209000Y-76941000D01*
X41148000Y-54610000D02*
X41148000Y-55880000D01*
D26*
%TO.N,+5V*%
X96774000Y-39116000D02*
X95758000Y-40132000D01*
X112268000Y-39116000D02*
X96774000Y-39116000D01*
X117348000Y-44196000D02*
X112268000Y-39116000D01*
X121412000Y-60706000D02*
X121412000Y-44196000D01*
X121412000Y-44196000D02*
X117348000Y-44196000D01*
%TO.N,GND*%
X90191000Y-61722000D02*
X90170000Y-61701000D01*
X120655000Y-88900000D02*
X120909000Y-89154000D01*
X120909000Y-97023000D02*
X120650000Y-97282000D01*
D25*
%TO.N,Net-(D1-A)*%
X105410000Y-94696000D02*
X115524000Y-94696000D01*
X115524000Y-94696000D02*
X118110000Y-97282000D01*
%TO.N,Net-(D2-A)*%
X118369000Y-89154000D02*
X105918000Y-89154000D01*
X105918000Y-89154000D02*
X105410000Y-88646000D01*
%TO.N,Net-(D3-A)*%
X106726000Y-81280000D02*
X105410000Y-82596000D01*
X118115000Y-81280000D02*
X106726000Y-81280000D01*
%TO.N,Net-(D4-A)*%
X118618000Y-73660000D02*
X108296000Y-73660000D01*
X108296000Y-73660000D02*
X105410000Y-76546000D01*
D26*
%TO.N,+5V*%
X100711000Y-45339000D02*
X100711000Y-45085000D01*
X105760000Y-48768000D02*
X104394000Y-48768000D01*
X36068000Y-40132000D02*
X30480000Y-45720000D01*
X30480000Y-45720000D02*
X30480000Y-78994000D01*
X40386000Y-88900000D02*
X40386000Y-91948000D01*
X44460000Y-96022000D02*
X40386000Y-91948000D01*
X104394000Y-48768000D02*
X100711000Y-45085000D01*
X90170000Y-55880000D02*
X100711000Y-45339000D01*
X49555000Y-96022000D02*
X44460000Y-96022000D01*
X90170000Y-59161000D02*
X90170000Y-55880000D01*
X95758000Y-40132000D02*
X36068000Y-40132000D01*
X30480000Y-78994000D02*
X40386000Y-88900000D01*
X100711000Y-45085000D02*
X95758000Y-40132000D01*
D25*
%TO.N,/P1*%
X121158000Y-62992000D02*
X121412000Y-63246000D01*
X112014000Y-62992000D02*
X121158000Y-62992000D01*
%TO.N,/D35*%
X90170000Y-87101000D02*
X92735000Y-87101000D01*
X92735000Y-87101000D02*
X100330000Y-94696000D01*
%TO.N,/D34*%
X96245000Y-84561000D02*
X100330000Y-88646000D01*
X90170000Y-84561000D02*
X96245000Y-84561000D01*
%TO.N,/D33*%
X100330000Y-82596000D02*
X90745000Y-82596000D01*
X90745000Y-82596000D02*
X90170000Y-82021000D01*
%TO.N,/D32*%
X97395000Y-79481000D02*
X100330000Y-76546000D01*
X90170000Y-79481000D02*
X97395000Y-79481000D01*
%TO.N,/D14*%
X89683000Y-69321000D02*
X90170000Y-69321000D01*
X67564000Y-100624000D02*
X67564000Y-91440000D01*
X67564000Y-91440000D02*
X89683000Y-69321000D01*
X73899000Y-106959000D02*
X67564000Y-100624000D01*
D26*
%TO.N,+3V3*%
X64770000Y-59161000D02*
X48493000Y-59161000D01*
X46228000Y-56896000D02*
X46228000Y-54610000D01*
X48493000Y-59161000D02*
X46228000Y-56896000D01*
%TD*%
%TA.AperFunction,Conductor*%
%TO.N,GND*%
G36*
X124581539Y-35909185D02*
G01*
X124627294Y-35961989D01*
X124638500Y-36013500D01*
X124638500Y-112830500D01*
X124618815Y-112897539D01*
X124566011Y-112943294D01*
X124514500Y-112954500D01*
X28318000Y-112954500D01*
X28250961Y-112934815D01*
X28205206Y-112882011D01*
X28194000Y-112830500D01*
X28194000Y-78993999D01*
X28824396Y-78993999D01*
X28829500Y-79058853D01*
X28844778Y-79252990D01*
X28905427Y-79505610D01*
X29004843Y-79745623D01*
X29004845Y-79745627D01*
X29004846Y-79745628D01*
X29140588Y-79967140D01*
X29309311Y-80164689D01*
X29356939Y-80205367D01*
X29360490Y-80208650D01*
X34277878Y-85126037D01*
X38699181Y-89547340D01*
X38732666Y-89608663D01*
X38735500Y-89635021D01*
X38735500Y-91880706D01*
X38735309Y-91885572D01*
X38730396Y-91947999D01*
X38735500Y-92012853D01*
X38750778Y-92206990D01*
X38811427Y-92459610D01*
X38910843Y-92699623D01*
X38910845Y-92699627D01*
X38910846Y-92699628D01*
X39046588Y-92921140D01*
X39215311Y-93118689D01*
X39262939Y-93159367D01*
X39266490Y-93162650D01*
X39876987Y-93773147D01*
X40477181Y-94373341D01*
X40510666Y-94434664D01*
X40513500Y-94461022D01*
X40513500Y-102040706D01*
X40513309Y-102045572D01*
X40508396Y-102107999D01*
X40513500Y-102172853D01*
X40528778Y-102366990D01*
X40589427Y-102619610D01*
X40688843Y-102859623D01*
X40688845Y-102859627D01*
X40688846Y-102859628D01*
X40824588Y-103081140D01*
X40993311Y-103278689D01*
X41040939Y-103319367D01*
X41044490Y-103322650D01*
X48315347Y-110593507D01*
X48318640Y-110597070D01*
X48359311Y-110644689D01*
X48556860Y-110813412D01*
X48778372Y-110949154D01*
X48778374Y-110949154D01*
X48778376Y-110949156D01*
X48839693Y-110974554D01*
X49018390Y-111048573D01*
X49271006Y-111109221D01*
X49465147Y-111124500D01*
X49530000Y-111129604D01*
X49588276Y-111125017D01*
X49592427Y-111124691D01*
X49597293Y-111124500D01*
X75116707Y-111124500D01*
X75121573Y-111124691D01*
X75126052Y-111125043D01*
X75184000Y-111129604D01*
X75248853Y-111124500D01*
X75442994Y-111109221D01*
X75695610Y-111048573D01*
X75935628Y-110949154D01*
X76157140Y-110813412D01*
X76354689Y-110644689D01*
X76395367Y-110597059D01*
X76398638Y-110593520D01*
X77558520Y-109433638D01*
X77562059Y-109430367D01*
X77609689Y-109389689D01*
X77778412Y-109192140D01*
X77914154Y-108970628D01*
X78013573Y-108730610D01*
X78074221Y-108477994D01*
X78089500Y-108283853D01*
X78094604Y-108219000D01*
X78089691Y-108156572D01*
X78089500Y-108151706D01*
X78089500Y-107829233D01*
X78104668Y-107769806D01*
X78126574Y-107729689D01*
X78219077Y-107481678D01*
X78275343Y-107223026D01*
X78294227Y-106959000D01*
X78275343Y-106694974D01*
X78219077Y-106436322D01*
X78126574Y-106188311D01*
X77999716Y-105955989D01*
X77999714Y-105955986D01*
X77841093Y-105744092D01*
X77841077Y-105744074D01*
X77653925Y-105556922D01*
X77653907Y-105556906D01*
X77442013Y-105398285D01*
X77442005Y-105398280D01*
X77209694Y-105271428D01*
X77209690Y-105271426D01*
X76961673Y-105178921D01*
X76703034Y-105122658D01*
X76703027Y-105122657D01*
X76439001Y-105103773D01*
X76438999Y-105103773D01*
X76174972Y-105122657D01*
X76174965Y-105122658D01*
X75916326Y-105178921D01*
X75668309Y-105271426D01*
X75668305Y-105271428D01*
X75435994Y-105398280D01*
X75435986Y-105398285D01*
X75243310Y-105542520D01*
X75177845Y-105566937D01*
X75109573Y-105552085D01*
X75094690Y-105542520D01*
X74902013Y-105398285D01*
X74902005Y-105398280D01*
X74669694Y-105271428D01*
X74669690Y-105271426D01*
X74421673Y-105178921D01*
X74163034Y-105122658D01*
X74163017Y-105122655D01*
X74156317Y-105122176D01*
X74090854Y-105097755D01*
X74077491Y-105086174D01*
X69353998Y-100362681D01*
X69320513Y-100301358D01*
X69325497Y-100231666D01*
X69367369Y-100175733D01*
X69432833Y-100151316D01*
X69441679Y-100151000D01*
X86250000Y-100151000D01*
X86250000Y-93661000D01*
X69138500Y-93661000D01*
X69071461Y-93641315D01*
X69025706Y-93588511D01*
X69014500Y-93537000D01*
X69014500Y-92092178D01*
X69034185Y-92025139D01*
X69050814Y-92004502D01*
X88233988Y-72821327D01*
X88295309Y-72787844D01*
X88365001Y-72792828D01*
X88420934Y-72834700D01*
X88430499Y-72849582D01*
X88440822Y-72868487D01*
X88482774Y-72945315D01*
X88566147Y-73056689D01*
X88566148Y-73056690D01*
X88590564Y-73122155D01*
X88575712Y-73190428D01*
X88566148Y-73205310D01*
X88482770Y-73316690D01*
X88345635Y-73567833D01*
X88245628Y-73835962D01*
X88184804Y-74115566D01*
X88164390Y-74400998D01*
X88164390Y-74401001D01*
X88184804Y-74686433D01*
X88245628Y-74966037D01*
X88245630Y-74966043D01*
X88245631Y-74966046D01*
X88295579Y-75099961D01*
X88345635Y-75234166D01*
X88482770Y-75485309D01*
X88482771Y-75485310D01*
X88482774Y-75485315D01*
X88557796Y-75585533D01*
X88566148Y-75596690D01*
X88590564Y-75662155D01*
X88575712Y-75730428D01*
X88566150Y-75745306D01*
X88537139Y-75784061D01*
X88482770Y-75856690D01*
X88345635Y-76107833D01*
X88245628Y-76375962D01*
X88184804Y-76655566D01*
X88164390Y-76940998D01*
X88164390Y-76941001D01*
X88184804Y-77226433D01*
X88245628Y-77506037D01*
X88245630Y-77506043D01*
X88245631Y-77506046D01*
X88298805Y-77648611D01*
X88345635Y-77774166D01*
X88482770Y-78025309D01*
X88482771Y-78025310D01*
X88482774Y-78025315D01*
X88542670Y-78105327D01*
X88566148Y-78136690D01*
X88590564Y-78202155D01*
X88575712Y-78270428D01*
X88566150Y-78285306D01*
X88558505Y-78295520D01*
X88482770Y-78396690D01*
X88345635Y-78647833D01*
X88245628Y-78915962D01*
X88184804Y-79195566D01*
X88164390Y-79480998D01*
X88164390Y-79481001D01*
X88184804Y-79766433D01*
X88245628Y-80046037D01*
X88245630Y-80046043D01*
X88245631Y-80046046D01*
X88338201Y-80294236D01*
X88345635Y-80314166D01*
X88482770Y-80565309D01*
X88482771Y-80565310D01*
X88482774Y-80565315D01*
X88557796Y-80665533D01*
X88566148Y-80676690D01*
X88590564Y-80742155D01*
X88575712Y-80810428D01*
X88566150Y-80825306D01*
X88537139Y-80864061D01*
X88482770Y-80936690D01*
X88345635Y-81187833D01*
X88245628Y-81455962D01*
X88184804Y-81735566D01*
X88164390Y-82020998D01*
X88164390Y-82021001D01*
X88184804Y-82306433D01*
X88245628Y-82586037D01*
X88245630Y-82586043D01*
X88245631Y-82586046D01*
X88342735Y-82846390D01*
X88345635Y-82854166D01*
X88482770Y-83105309D01*
X88482771Y-83105310D01*
X88482774Y-83105315D01*
X88566147Y-83216689D01*
X88566148Y-83216690D01*
X88590564Y-83282155D01*
X88575712Y-83350428D01*
X88566150Y-83365306D01*
X88536431Y-83405007D01*
X88482770Y-83476690D01*
X88345635Y-83727833D01*
X88245628Y-83995962D01*
X88184804Y-84275566D01*
X88164390Y-84560998D01*
X88164390Y-84561001D01*
X88184804Y-84846433D01*
X88245628Y-85126037D01*
X88345635Y-85394166D01*
X88482770Y-85645309D01*
X88566148Y-85756690D01*
X88590564Y-85822155D01*
X88575712Y-85890428D01*
X88566148Y-85905310D01*
X88482770Y-86016690D01*
X88345635Y-86267833D01*
X88245628Y-86535962D01*
X88184804Y-86815566D01*
X88164390Y-87100998D01*
X88164390Y-87101001D01*
X88184804Y-87386433D01*
X88245628Y-87666037D01*
X88245630Y-87666043D01*
X88245631Y-87666046D01*
X88335222Y-87906247D01*
X88345635Y-87934166D01*
X88482770Y-88185309D01*
X88482771Y-88185310D01*
X88482774Y-88185315D01*
X88566147Y-88296689D01*
X88566148Y-88296690D01*
X88590564Y-88362155D01*
X88575712Y-88430428D01*
X88566148Y-88445310D01*
X88482770Y-88556690D01*
X88345635Y-88807833D01*
X88245628Y-89075962D01*
X88184804Y-89355566D01*
X88164390Y-89640998D01*
X88164390Y-89641001D01*
X88184804Y-89926433D01*
X88245628Y-90206037D01*
X88245630Y-90206043D01*
X88245631Y-90206046D01*
X88316302Y-90395521D01*
X88345635Y-90474166D01*
X88482770Y-90725309D01*
X88482771Y-90725310D01*
X88482774Y-90725315D01*
X88566147Y-90836689D01*
X88566148Y-90836690D01*
X88590564Y-90902155D01*
X88575712Y-90970428D01*
X88566150Y-90985306D01*
X88525237Y-91039961D01*
X88482770Y-91096690D01*
X88345635Y-91347833D01*
X88245628Y-91615962D01*
X88184804Y-91895566D01*
X88164390Y-92180998D01*
X88164390Y-92181001D01*
X88184804Y-92466433D01*
X88245628Y-92746037D01*
X88245630Y-92746043D01*
X88245631Y-92746046D01*
X88320389Y-92946480D01*
X88345635Y-93014166D01*
X88482770Y-93265309D01*
X88482771Y-93265310D01*
X88482774Y-93265315D01*
X88566147Y-93376689D01*
X88566148Y-93376690D01*
X88590564Y-93442155D01*
X88575712Y-93510428D01*
X88566150Y-93525306D01*
X88561932Y-93530942D01*
X88482770Y-93636690D01*
X88345635Y-93887833D01*
X88245628Y-94155962D01*
X88184804Y-94435566D01*
X88164390Y-94720998D01*
X88164390Y-94721001D01*
X88184804Y-95006433D01*
X88245628Y-95286037D01*
X88245630Y-95286043D01*
X88245631Y-95286046D01*
X88286657Y-95396040D01*
X88345635Y-95554166D01*
X88482770Y-95805309D01*
X88482775Y-95805317D01*
X88654254Y-96034387D01*
X88654270Y-96034405D01*
X88856594Y-96236729D01*
X88856612Y-96236745D01*
X88998111Y-96342669D01*
X89039983Y-96398602D01*
X89044967Y-96468294D01*
X89011482Y-96529617D01*
X88969106Y-96557363D01*
X88938356Y-96569432D01*
X88711143Y-96700614D01*
X88506014Y-96864198D01*
X88327567Y-97056520D01*
X88179768Y-97273302D01*
X88179767Y-97273303D01*
X88065938Y-97509673D01*
X87988606Y-97760376D01*
X87988605Y-97760381D01*
X87988604Y-97760385D01*
X87983943Y-97791311D01*
X87949500Y-98019812D01*
X87949500Y-98282187D01*
X87954011Y-98312113D01*
X87988604Y-98541615D01*
X87988605Y-98541617D01*
X87988606Y-98541623D01*
X88065938Y-98792326D01*
X88179767Y-99028696D01*
X88179768Y-99028697D01*
X88179770Y-99028700D01*
X88179772Y-99028704D01*
X88274716Y-99167961D01*
X88327567Y-99245479D01*
X88506014Y-99437801D01*
X88506018Y-99437804D01*
X88506019Y-99437805D01*
X88711143Y-99601386D01*
X88938357Y-99732568D01*
X89182584Y-99828420D01*
X89438370Y-99886802D01*
X89438376Y-99886802D01*
X89438379Y-99886803D01*
X89634500Y-99901500D01*
X89634506Y-99901500D01*
X89765500Y-99901500D01*
X89961620Y-99886803D01*
X89961622Y-99886802D01*
X89961630Y-99886802D01*
X90217416Y-99828420D01*
X90461643Y-99732568D01*
X90688857Y-99601386D01*
X90893981Y-99437805D01*
X91072433Y-99245479D01*
X91220228Y-99028704D01*
X91334063Y-98792323D01*
X91411396Y-98541615D01*
X91450500Y-98282182D01*
X91450500Y-98019818D01*
X91411396Y-97760385D01*
X91334063Y-97509677D01*
X91284376Y-97406501D01*
X91220232Y-97273303D01*
X91220231Y-97273302D01*
X91220230Y-97273301D01*
X91220228Y-97273296D01*
X91072433Y-97056521D01*
X91062441Y-97045753D01*
X90893985Y-96864198D01*
X90827638Y-96811288D01*
X90787498Y-96754099D01*
X90784648Y-96684287D01*
X90819994Y-96624018D01*
X90861614Y-96598161D01*
X91003161Y-96545367D01*
X91254315Y-96408226D01*
X91483395Y-96236739D01*
X91685739Y-96034395D01*
X91857226Y-95805315D01*
X91994367Y-95554161D01*
X92094369Y-95286046D01*
X92101926Y-95251305D01*
X92155195Y-95006433D01*
X92155195Y-95006432D01*
X92155196Y-95006428D01*
X92175610Y-94721000D01*
X92155196Y-94435572D01*
X92154998Y-94434664D01*
X92094371Y-94155962D01*
X92094370Y-94155960D01*
X92094369Y-94155954D01*
X91994367Y-93887839D01*
X91954554Y-93814928D01*
X91857229Y-93636690D01*
X91857228Y-93636689D01*
X91857226Y-93636685D01*
X91773849Y-93525307D01*
X91749434Y-93459847D01*
X91764285Y-93391574D01*
X91773841Y-93376703D01*
X91857226Y-93265315D01*
X91994367Y-93014161D01*
X92094369Y-92746046D01*
X92144708Y-92514640D01*
X92155195Y-92466433D01*
X92155195Y-92466432D01*
X92155196Y-92466428D01*
X92175610Y-92181000D01*
X92155196Y-91895572D01*
X92099056Y-91637501D01*
X92094371Y-91615962D01*
X92094370Y-91615960D01*
X92094369Y-91615954D01*
X91994367Y-91347839D01*
X91925515Y-91221747D01*
X91857229Y-91096690D01*
X91857228Y-91096689D01*
X91857226Y-91096685D01*
X91773849Y-90985307D01*
X91749434Y-90919847D01*
X91764285Y-90851574D01*
X91773841Y-90836703D01*
X91857226Y-90725315D01*
X91994367Y-90474161D01*
X92094369Y-90206046D01*
X92155196Y-89926428D01*
X92175610Y-89641000D01*
X92175182Y-89635021D01*
X92165584Y-89500817D01*
X92155196Y-89355572D01*
X92124999Y-89216760D01*
X92094371Y-89075962D01*
X92094370Y-89075960D01*
X92094369Y-89075954D01*
X91994367Y-88807839D01*
X91954553Y-88734926D01*
X91939702Y-88666655D01*
X91964118Y-88601190D01*
X92020052Y-88559318D01*
X92063386Y-88551500D01*
X92082821Y-88551500D01*
X92149860Y-88571185D01*
X92170502Y-88587819D01*
X98094516Y-94511833D01*
X98128001Y-94573156D01*
X98130569Y-94607622D01*
X98124778Y-94696000D01*
X98126416Y-94720998D01*
X98143644Y-94983837D01*
X98143646Y-94983849D01*
X98199917Y-95266745D01*
X98199921Y-95266760D01*
X98292642Y-95539905D01*
X98420219Y-95798606D01*
X98420223Y-95798613D01*
X98580478Y-96038452D01*
X98770672Y-96255327D01*
X98987547Y-96445521D01*
X99154931Y-96557363D01*
X99227389Y-96605778D01*
X99486098Y-96733359D01*
X99759247Y-96826081D01*
X100042161Y-96882356D01*
X100330000Y-96901222D01*
X100617839Y-96882356D01*
X100900753Y-96826081D01*
X101173902Y-96733359D01*
X101432611Y-96605778D01*
X101672454Y-96445520D01*
X101889327Y-96255327D01*
X102079520Y-96038454D01*
X102239778Y-95798611D01*
X102367359Y-95539902D01*
X102460081Y-95266753D01*
X102516356Y-94983839D01*
X102535222Y-94696000D01*
X103204778Y-94696000D01*
X103223644Y-94983837D01*
X103223646Y-94983849D01*
X103279917Y-95266745D01*
X103279921Y-95266760D01*
X103372642Y-95539905D01*
X103500219Y-95798606D01*
X103500223Y-95798613D01*
X103660478Y-96038452D01*
X103850672Y-96255327D01*
X104067547Y-96445521D01*
X104234931Y-96557363D01*
X104307389Y-96605778D01*
X104566098Y-96733359D01*
X104839247Y-96826081D01*
X105122161Y-96882356D01*
X105410000Y-96901222D01*
X105697839Y-96882356D01*
X105980753Y-96826081D01*
X106253902Y-96733359D01*
X106512611Y-96605778D01*
X106752454Y-96445520D01*
X106969327Y-96255327D01*
X106985637Y-96236729D01*
X107027722Y-96188741D01*
X107086724Y-96151317D01*
X107120950Y-96146500D01*
X114871821Y-96146500D01*
X114938860Y-96166185D01*
X114959502Y-96182819D01*
X116183184Y-97406501D01*
X116216669Y-97467824D01*
X116219187Y-97485334D01*
X116224039Y-97553162D01*
X116224040Y-97553168D01*
X116281823Y-97818793D01*
X116281825Y-97818801D01*
X116356800Y-98019817D01*
X116376830Y-98073519D01*
X116507109Y-98312107D01*
X116507110Y-98312108D01*
X116507113Y-98312113D01*
X116670029Y-98529742D01*
X116670033Y-98529746D01*
X116670038Y-98529752D01*
X116862247Y-98721961D01*
X116862253Y-98721966D01*
X116862258Y-98721971D01*
X117079887Y-98884887D01*
X117079891Y-98884889D01*
X117079892Y-98884890D01*
X117318481Y-99015169D01*
X117318480Y-99015169D01*
X117318484Y-99015170D01*
X117318487Y-99015172D01*
X117573199Y-99110175D01*
X117838840Y-99167961D01*
X118090605Y-99185967D01*
X118109999Y-99187355D01*
X118110000Y-99187355D01*
X118110001Y-99187355D01*
X118128100Y-99186060D01*
X118381160Y-99167961D01*
X118646801Y-99110175D01*
X118901513Y-99015172D01*
X118901517Y-99015169D01*
X118901519Y-99015169D01*
X119020813Y-98950029D01*
X119140113Y-98884887D01*
X119357742Y-98721971D01*
X119549971Y-98529742D01*
X119712887Y-98312113D01*
X119843172Y-98073513D01*
X119938175Y-97818801D01*
X119995961Y-97553160D01*
X120015355Y-97282000D01*
X120014732Y-97273296D01*
X120012765Y-97245799D01*
X119995961Y-97010840D01*
X119938175Y-96745199D01*
X119843172Y-96490487D01*
X119843170Y-96490484D01*
X119843169Y-96490480D01*
X119712890Y-96251892D01*
X119712889Y-96251891D01*
X119712887Y-96251887D01*
X119549971Y-96034258D01*
X119549966Y-96034253D01*
X119549961Y-96034247D01*
X119357752Y-95842038D01*
X119357746Y-95842033D01*
X119357742Y-95842029D01*
X119140113Y-95679113D01*
X119140108Y-95679110D01*
X119140107Y-95679109D01*
X118901518Y-95548830D01*
X118901519Y-95548830D01*
X118851920Y-95530330D01*
X118646801Y-95453825D01*
X118646794Y-95453823D01*
X118646793Y-95453823D01*
X118381168Y-95396040D01*
X118381162Y-95396039D01*
X118313334Y-95391187D01*
X118247870Y-95366769D01*
X118234501Y-95355184D01*
X116616063Y-93736746D01*
X116610972Y-93730981D01*
X116594826Y-93710237D01*
X116594821Y-93710232D01*
X116528459Y-93649141D01*
X116507237Y-93627920D01*
X116501871Y-93623375D01*
X116484340Y-93608527D01*
X116417969Y-93547429D01*
X116417964Y-93547425D01*
X116395957Y-93533047D01*
X116389794Y-93528451D01*
X116369738Y-93511465D01*
X116292252Y-93465294D01*
X116270374Y-93451000D01*
X116216728Y-93415951D01*
X116216726Y-93415950D01*
X116216720Y-93415946D01*
X116192657Y-93405391D01*
X116185819Y-93401872D01*
X116163240Y-93388418D01*
X116163233Y-93388415D01*
X116079194Y-93355623D01*
X115996590Y-93319389D01*
X115971106Y-93312935D01*
X115963784Y-93310589D01*
X115939306Y-93301038D01*
X115939300Y-93301036D01*
X115895150Y-93291779D01*
X115851001Y-93282522D01*
X115821349Y-93275013D01*
X115763561Y-93260379D01*
X115737369Y-93258209D01*
X115729761Y-93257100D01*
X115704041Y-93251707D01*
X115704028Y-93251705D01*
X115613892Y-93247977D01*
X115606415Y-93247357D01*
X115583990Y-93245500D01*
X115583987Y-93245500D01*
X115553986Y-93245500D01*
X115463854Y-93241772D01*
X115463853Y-93241772D01*
X115437762Y-93245024D01*
X115430090Y-93245500D01*
X107120950Y-93245500D01*
X107053911Y-93225815D01*
X107027722Y-93203259D01*
X106969327Y-93136672D01*
X106752452Y-92946478D01*
X106512613Y-92786223D01*
X106512606Y-92786219D01*
X106253905Y-92658642D01*
X105980760Y-92565921D01*
X105980754Y-92565919D01*
X105980753Y-92565919D01*
X105980751Y-92565918D01*
X105980745Y-92565917D01*
X105697849Y-92509646D01*
X105697839Y-92509644D01*
X105410000Y-92490778D01*
X105122161Y-92509644D01*
X105122155Y-92509645D01*
X105122150Y-92509646D01*
X104839254Y-92565917D01*
X104839239Y-92565921D01*
X104566094Y-92658642D01*
X104307393Y-92786219D01*
X104307386Y-92786223D01*
X104067547Y-92946478D01*
X103850672Y-93136672D01*
X103660478Y-93353547D01*
X103500223Y-93593386D01*
X103500219Y-93593393D01*
X103372642Y-93852094D01*
X103279921Y-94125239D01*
X103279917Y-94125254D01*
X103223646Y-94408150D01*
X103223644Y-94408162D01*
X103204778Y-94696000D01*
X102535222Y-94696000D01*
X102516356Y-94408161D01*
X102460081Y-94125247D01*
X102367359Y-93852098D01*
X102239778Y-93593389D01*
X102194289Y-93525310D01*
X102079521Y-93353547D01*
X101889327Y-93136672D01*
X101672452Y-92946478D01*
X101432613Y-92786223D01*
X101432606Y-92786219D01*
X101173905Y-92658642D01*
X100900760Y-92565921D01*
X100900754Y-92565919D01*
X100900753Y-92565919D01*
X100900751Y-92565918D01*
X100900745Y-92565917D01*
X100617849Y-92509646D01*
X100617839Y-92509644D01*
X100330000Y-92490778D01*
X100329999Y-92490778D01*
X100294357Y-92493113D01*
X100241622Y-92496569D01*
X100173439Y-92481311D01*
X100145833Y-92460516D01*
X93908498Y-86223181D01*
X93875013Y-86161858D01*
X93879997Y-86092166D01*
X93921869Y-86036233D01*
X93987333Y-86011816D01*
X93996179Y-86011500D01*
X95592821Y-86011500D01*
X95659860Y-86031185D01*
X95680502Y-86047819D01*
X98094516Y-88461832D01*
X98128001Y-88523155D01*
X98130570Y-88557622D01*
X98124778Y-88645999D01*
X98143644Y-88933837D01*
X98143646Y-88933849D01*
X98199917Y-89216745D01*
X98199921Y-89216760D01*
X98292642Y-89489905D01*
X98420219Y-89748606D01*
X98420223Y-89748613D01*
X98580478Y-89988452D01*
X98770672Y-90205327D01*
X98987547Y-90395521D01*
X99105248Y-90474166D01*
X99227389Y-90555778D01*
X99486098Y-90683359D01*
X99759247Y-90776081D01*
X100042161Y-90832356D01*
X100330000Y-90851222D01*
X100617839Y-90832356D01*
X100900753Y-90776081D01*
X101173902Y-90683359D01*
X101432611Y-90555778D01*
X101672454Y-90395520D01*
X101889327Y-90205327D01*
X102079520Y-89988454D01*
X102239778Y-89748611D01*
X102367359Y-89489902D01*
X102460081Y-89216753D01*
X102516356Y-88933839D01*
X102535222Y-88646000D01*
X103204778Y-88646000D01*
X103223644Y-88933837D01*
X103223646Y-88933849D01*
X103279917Y-89216745D01*
X103279921Y-89216760D01*
X103372642Y-89489905D01*
X103500219Y-89748606D01*
X103500223Y-89748613D01*
X103660478Y-89988452D01*
X103850672Y-90205327D01*
X104067547Y-90395521D01*
X104185248Y-90474166D01*
X104307389Y-90555778D01*
X104566098Y-90683359D01*
X104839247Y-90776081D01*
X105122161Y-90832356D01*
X105410000Y-90851222D01*
X105697839Y-90832356D01*
X105980753Y-90776081D01*
X106253902Y-90683359D01*
X106387881Y-90617288D01*
X106442725Y-90604500D01*
X117094051Y-90604500D01*
X117161090Y-90624185D01*
X117168361Y-90629233D01*
X117338884Y-90756885D01*
X117338892Y-90756890D01*
X117577481Y-90887169D01*
X117577480Y-90887169D01*
X117577484Y-90887170D01*
X117577487Y-90887172D01*
X117832199Y-90982175D01*
X118097840Y-91039961D01*
X118349605Y-91057967D01*
X118368999Y-91059355D01*
X118369000Y-91059355D01*
X118369001Y-91059355D01*
X118387100Y-91058060D01*
X118640160Y-91039961D01*
X118905801Y-90982175D01*
X119160513Y-90887172D01*
X119160517Y-90887169D01*
X119160519Y-90887169D01*
X119325668Y-90796991D01*
X119399113Y-90756887D01*
X119616742Y-90593971D01*
X119808971Y-90401742D01*
X119971887Y-90184113D01*
X120063264Y-90016768D01*
X120102169Y-89945519D01*
X120102169Y-89945517D01*
X120102172Y-89945513D01*
X120197175Y-89690801D01*
X120254961Y-89425160D01*
X120274355Y-89154000D01*
X120254961Y-88882840D01*
X120197175Y-88617199D01*
X120102172Y-88362487D01*
X120102170Y-88362484D01*
X120102169Y-88362480D01*
X119971890Y-88123892D01*
X119971889Y-88123891D01*
X119971887Y-88123887D01*
X119808971Y-87906258D01*
X119808966Y-87906253D01*
X119808961Y-87906247D01*
X119616752Y-87714038D01*
X119616746Y-87714033D01*
X119616742Y-87714029D01*
X119399113Y-87551113D01*
X119399108Y-87551110D01*
X119399107Y-87551109D01*
X119160518Y-87420830D01*
X119160519Y-87420830D01*
X119110920Y-87402330D01*
X118905801Y-87325825D01*
X118905794Y-87325823D01*
X118905793Y-87325823D01*
X118640167Y-87268040D01*
X118640160Y-87268039D01*
X118369001Y-87248645D01*
X118368999Y-87248645D01*
X118097839Y-87268039D01*
X118097832Y-87268040D01*
X117832206Y-87325823D01*
X117832202Y-87325824D01*
X117832199Y-87325825D01*
X117704843Y-87373326D01*
X117577480Y-87420830D01*
X117338892Y-87551109D01*
X117338884Y-87551114D01*
X117168361Y-87678767D01*
X117102897Y-87703184D01*
X117094051Y-87703500D01*
X107475844Y-87703500D01*
X107408805Y-87683815D01*
X107364632Y-87634343D01*
X107319785Y-87543402D01*
X107319782Y-87543397D01*
X107319778Y-87543389D01*
X107199448Y-87363303D01*
X107159521Y-87303547D01*
X106969327Y-87086672D01*
X106752452Y-86896478D01*
X106512613Y-86736223D01*
X106512606Y-86736219D01*
X106253905Y-86608642D01*
X105980760Y-86515921D01*
X105980754Y-86515919D01*
X105980753Y-86515919D01*
X105980751Y-86515918D01*
X105980745Y-86515917D01*
X105697849Y-86459646D01*
X105697839Y-86459644D01*
X105410000Y-86440778D01*
X105122161Y-86459644D01*
X105122155Y-86459645D01*
X105122150Y-86459646D01*
X104839254Y-86515917D01*
X104839239Y-86515921D01*
X104566094Y-86608642D01*
X104307393Y-86736219D01*
X104307386Y-86736223D01*
X104067547Y-86896478D01*
X103850672Y-87086672D01*
X103660478Y-87303547D01*
X103500223Y-87543386D01*
X103500219Y-87543393D01*
X103372642Y-87802094D01*
X103279921Y-88075239D01*
X103279917Y-88075254D01*
X103223646Y-88358150D01*
X103223644Y-88358161D01*
X103222223Y-88379847D01*
X103204778Y-88646000D01*
X102535222Y-88646000D01*
X102516356Y-88358161D01*
X102460081Y-88075247D01*
X102367359Y-87802098D01*
X102300261Y-87666037D01*
X102239780Y-87543393D01*
X102239776Y-87543386D01*
X102079521Y-87303547D01*
X101889327Y-87086672D01*
X101672452Y-86896478D01*
X101432613Y-86736223D01*
X101432606Y-86736219D01*
X101173905Y-86608642D01*
X100900760Y-86515921D01*
X100900754Y-86515919D01*
X100900753Y-86515919D01*
X100900751Y-86515918D01*
X100900745Y-86515917D01*
X100617849Y-86459646D01*
X100617839Y-86459644D01*
X100330000Y-86440778D01*
X100329999Y-86440778D01*
X100241622Y-86446570D01*
X100173438Y-86431311D01*
X100145832Y-86410516D01*
X97993498Y-84258181D01*
X97960013Y-84196858D01*
X97964997Y-84127166D01*
X98006869Y-84071233D01*
X98072333Y-84046816D01*
X98081179Y-84046500D01*
X98619050Y-84046500D01*
X98686089Y-84066185D01*
X98712278Y-84088741D01*
X98770672Y-84155327D01*
X98987546Y-84345520D01*
X99227389Y-84505778D01*
X99486098Y-84633359D01*
X99759247Y-84726081D01*
X100042161Y-84782356D01*
X100330000Y-84801222D01*
X100617839Y-84782356D01*
X100900753Y-84726081D01*
X101173902Y-84633359D01*
X101432611Y-84505778D01*
X101672454Y-84345520D01*
X101889327Y-84155327D01*
X102079520Y-83938454D01*
X102239778Y-83698611D01*
X102367359Y-83439902D01*
X102460081Y-83166753D01*
X102516356Y-82883839D01*
X102535222Y-82596000D01*
X103204778Y-82596000D01*
X103223644Y-82883839D01*
X103223646Y-82883849D01*
X103279917Y-83166745D01*
X103279921Y-83166760D01*
X103372642Y-83439905D01*
X103500219Y-83698606D01*
X103500223Y-83698613D01*
X103660478Y-83938452D01*
X103850672Y-84155327D01*
X104067546Y-84345520D01*
X104307389Y-84505778D01*
X104566098Y-84633359D01*
X104839247Y-84726081D01*
X105122161Y-84782356D01*
X105410000Y-84801222D01*
X105697839Y-84782356D01*
X105980753Y-84726081D01*
X106253902Y-84633359D01*
X106512611Y-84505778D01*
X106752454Y-84345520D01*
X106969327Y-84155327D01*
X107159520Y-83938454D01*
X107319778Y-83698611D01*
X107447359Y-83439902D01*
X107540081Y-83166753D01*
X107596356Y-82883839D01*
X107598810Y-82846388D01*
X107622838Y-82780781D01*
X107678521Y-82738578D01*
X107722545Y-82730500D01*
X116840051Y-82730500D01*
X116907090Y-82750185D01*
X116914361Y-82755233D01*
X117084884Y-82882885D01*
X117084892Y-82882890D01*
X117323481Y-83013169D01*
X117323480Y-83013169D01*
X117323484Y-83013170D01*
X117323487Y-83013172D01*
X117578199Y-83108175D01*
X117843840Y-83165961D01*
X118095342Y-83183949D01*
X118114999Y-83185355D01*
X118115000Y-83185355D01*
X118115001Y-83185355D01*
X118134658Y-83183949D01*
X118386160Y-83165961D01*
X118651801Y-83108175D01*
X118906513Y-83013172D01*
X118906517Y-83013169D01*
X118906519Y-83013169D01*
X119143351Y-82883849D01*
X119145113Y-82882887D01*
X119362742Y-82719971D01*
X119554971Y-82527742D01*
X119717887Y-82310113D01*
X119848172Y-82071513D01*
X119943175Y-81816801D01*
X120000961Y-81551160D01*
X120020355Y-81280000D01*
X120000961Y-81008840D01*
X119943175Y-80743199D01*
X119848172Y-80488487D01*
X119848170Y-80488484D01*
X119848169Y-80488480D01*
X119717890Y-80249892D01*
X119717889Y-80249891D01*
X119717887Y-80249887D01*
X119554971Y-80032258D01*
X119554966Y-80032253D01*
X119554961Y-80032247D01*
X119362752Y-79840038D01*
X119362746Y-79840033D01*
X119362742Y-79840029D01*
X119145113Y-79677113D01*
X119145108Y-79677110D01*
X119145107Y-79677109D01*
X118906518Y-79546830D01*
X118906519Y-79546830D01*
X118856920Y-79528330D01*
X118651801Y-79451825D01*
X118651794Y-79451823D01*
X118651793Y-79451823D01*
X118386167Y-79394040D01*
X118386160Y-79394039D01*
X118115001Y-79374645D01*
X118114999Y-79374645D01*
X117843839Y-79394039D01*
X117843832Y-79394040D01*
X117578206Y-79451823D01*
X117578202Y-79451824D01*
X117578199Y-79451825D01*
X117450843Y-79499326D01*
X117323480Y-79546830D01*
X117084892Y-79677109D01*
X117084884Y-79677114D01*
X116914361Y-79804767D01*
X116848897Y-79829184D01*
X116840051Y-79829500D01*
X106819910Y-79829500D01*
X106812237Y-79829024D01*
X106786147Y-79825772D01*
X106786145Y-79825772D01*
X106696014Y-79829500D01*
X106666010Y-79829500D01*
X106636108Y-79831977D01*
X106545964Y-79835706D01*
X106520239Y-79841100D01*
X106512630Y-79842209D01*
X106486444Y-79844378D01*
X106486436Y-79844380D01*
X106442717Y-79855451D01*
X106398998Y-79866522D01*
X106369565Y-79872693D01*
X106310699Y-79885036D01*
X106303950Y-79887669D01*
X106286206Y-79894593D01*
X106278885Y-79896938D01*
X106253411Y-79903389D01*
X106170805Y-79939623D01*
X106086766Y-79972415D01*
X106086761Y-79972417D01*
X106064178Y-79985873D01*
X106057344Y-79989391D01*
X106033276Y-79999948D01*
X106033264Y-79999955D01*
X105957747Y-80049294D01*
X105880260Y-80095467D01*
X105860201Y-80112454D01*
X105854041Y-80117046D01*
X105832035Y-80131425D01*
X105832031Y-80131429D01*
X105765659Y-80192527D01*
X105742763Y-80211920D01*
X105721541Y-80233141D01*
X105655179Y-80294231D01*
X105655170Y-80294241D01*
X105639022Y-80314986D01*
X105633934Y-80320747D01*
X105594165Y-80360516D01*
X105532842Y-80394001D01*
X105498376Y-80396569D01*
X105410000Y-80390778D01*
X105122161Y-80409644D01*
X105122155Y-80409645D01*
X105122150Y-80409646D01*
X104839254Y-80465917D01*
X104839239Y-80465921D01*
X104566094Y-80558642D01*
X104307393Y-80686219D01*
X104307386Y-80686223D01*
X104067547Y-80846478D01*
X103850672Y-81036672D01*
X103660478Y-81253547D01*
X103500223Y-81493386D01*
X103500219Y-81493393D01*
X103372642Y-81752094D01*
X103279921Y-82025239D01*
X103279917Y-82025254D01*
X103228646Y-82283013D01*
X103223644Y-82308161D01*
X103204778Y-82596000D01*
X102535222Y-82596000D01*
X102516356Y-82308161D01*
X102460081Y-82025247D01*
X102367359Y-81752098D01*
X102239778Y-81493389D01*
X102079520Y-81253546D01*
X101889327Y-81036672D01*
X101672452Y-80846478D01*
X101432613Y-80686223D01*
X101432606Y-80686219D01*
X101173905Y-80558642D01*
X100900760Y-80465921D01*
X100900754Y-80465919D01*
X100900753Y-80465919D01*
X100900751Y-80465918D01*
X100900745Y-80465917D01*
X100617849Y-80409646D01*
X100617839Y-80409644D01*
X100330000Y-80390778D01*
X100042161Y-80409644D01*
X100042155Y-80409645D01*
X100042150Y-80409646D01*
X99759254Y-80465917D01*
X99759239Y-80465921D01*
X99486094Y-80558642D01*
X99227393Y-80686219D01*
X99227386Y-80686223D01*
X98987547Y-80846478D01*
X98770672Y-81036672D01*
X98712278Y-81103259D01*
X98653276Y-81140683D01*
X98619050Y-81145500D01*
X97725521Y-81145500D01*
X97658482Y-81125815D01*
X97612727Y-81073011D01*
X97602783Y-81003853D01*
X97631808Y-80940297D01*
X97690586Y-80902523D01*
X97695080Y-80901295D01*
X97722001Y-80894477D01*
X97810299Y-80875964D01*
X97834794Y-80866404D01*
X97842102Y-80864063D01*
X97867591Y-80857610D01*
X97950194Y-80821376D01*
X98034238Y-80788583D01*
X98056831Y-80775118D01*
X98063650Y-80771609D01*
X98087728Y-80761049D01*
X98163252Y-80711705D01*
X98240740Y-80665533D01*
X98260803Y-80648540D01*
X98266951Y-80643955D01*
X98288969Y-80629571D01*
X98355340Y-80568472D01*
X98359068Y-80565315D01*
X98378235Y-80549082D01*
X98399458Y-80527858D01*
X98465825Y-80466764D01*
X98481978Y-80446008D01*
X98487052Y-80440263D01*
X100145834Y-78781481D01*
X100207155Y-78747998D01*
X100241619Y-78745429D01*
X100330000Y-78751222D01*
X100617839Y-78732356D01*
X100900753Y-78676081D01*
X101173902Y-78583359D01*
X101432611Y-78455778D01*
X101672454Y-78295520D01*
X101889327Y-78105327D01*
X102079520Y-77888454D01*
X102239778Y-77648611D01*
X102367359Y-77389902D01*
X102460081Y-77116753D01*
X102516356Y-76833839D01*
X102535222Y-76546000D01*
X103204778Y-76546000D01*
X103223644Y-76833837D01*
X103223646Y-76833849D01*
X103279917Y-77116745D01*
X103279921Y-77116760D01*
X103372642Y-77389905D01*
X103500219Y-77648606D01*
X103500223Y-77648613D01*
X103660478Y-77888452D01*
X103850672Y-78105327D01*
X104067547Y-78295521D01*
X104307386Y-78455776D01*
X104307389Y-78455778D01*
X104566098Y-78583359D01*
X104839247Y-78676081D01*
X105122161Y-78732356D01*
X105410000Y-78751222D01*
X105697839Y-78732356D01*
X105980753Y-78676081D01*
X106253902Y-78583359D01*
X106512611Y-78455778D01*
X106752454Y-78295520D01*
X106969327Y-78105327D01*
X107159520Y-77888454D01*
X107319778Y-77648611D01*
X107447359Y-77389902D01*
X107540081Y-77116753D01*
X107596356Y-76833839D01*
X107615222Y-76546000D01*
X107609429Y-76457624D01*
X107624686Y-76389441D01*
X107645478Y-76361836D01*
X108860497Y-75146819D01*
X108921820Y-75113334D01*
X108948178Y-75110500D01*
X117343051Y-75110500D01*
X117410090Y-75130185D01*
X117417361Y-75135233D01*
X117587884Y-75262885D01*
X117587892Y-75262890D01*
X117826481Y-75393169D01*
X117826480Y-75393169D01*
X117826484Y-75393170D01*
X117826487Y-75393172D01*
X118081199Y-75488175D01*
X118346840Y-75545961D01*
X118598314Y-75563947D01*
X118617999Y-75565355D01*
X118618000Y-75565355D01*
X118618001Y-75565355D01*
X118637686Y-75563947D01*
X118889160Y-75545961D01*
X119154801Y-75488175D01*
X119409513Y-75393172D01*
X119409517Y-75393169D01*
X119409519Y-75393169D01*
X119567194Y-75307072D01*
X119648113Y-75262887D01*
X119865742Y-75099971D01*
X120057971Y-74907742D01*
X120220887Y-74690113D01*
X120351172Y-74451513D01*
X120446175Y-74196801D01*
X120503961Y-73931160D01*
X120523355Y-73660000D01*
X120503961Y-73388840D01*
X120446175Y-73123199D01*
X120351172Y-72868487D01*
X120351170Y-72868484D01*
X120351169Y-72868480D01*
X120220890Y-72629892D01*
X120220889Y-72629891D01*
X120220887Y-72629887D01*
X120057971Y-72412258D01*
X120057966Y-72412253D01*
X120057961Y-72412247D01*
X119865752Y-72220038D01*
X119865746Y-72220033D01*
X119865742Y-72220029D01*
X119648113Y-72057113D01*
X119648108Y-72057110D01*
X119648107Y-72057109D01*
X119409518Y-71926830D01*
X119409519Y-71926830D01*
X119359920Y-71908330D01*
X119154801Y-71831825D01*
X119154794Y-71831823D01*
X119154793Y-71831823D01*
X118889167Y-71774040D01*
X118889160Y-71774039D01*
X118618001Y-71754645D01*
X118617999Y-71754645D01*
X118346839Y-71774039D01*
X118346832Y-71774040D01*
X118081206Y-71831823D01*
X118081202Y-71831824D01*
X118081199Y-71831825D01*
X117953843Y-71879326D01*
X117826480Y-71926830D01*
X117587892Y-72057109D01*
X117587884Y-72057114D01*
X117417361Y-72184767D01*
X117351897Y-72209184D01*
X117343051Y-72209500D01*
X108389910Y-72209500D01*
X108382237Y-72209024D01*
X108356147Y-72205772D01*
X108356145Y-72205772D01*
X108266014Y-72209500D01*
X108236010Y-72209500D01*
X108206108Y-72211977D01*
X108115964Y-72215706D01*
X108090239Y-72221100D01*
X108082630Y-72222209D01*
X108056444Y-72224378D01*
X108056436Y-72224380D01*
X107968998Y-72246522D01*
X107880703Y-72265035D01*
X107880700Y-72265035D01*
X107856211Y-72274591D01*
X107848891Y-72276936D01*
X107823410Y-72283389D01*
X107823408Y-72283389D01*
X107774670Y-72304768D01*
X107740792Y-72319628D01*
X107698777Y-72336023D01*
X107656762Y-72352417D01*
X107656755Y-72352421D01*
X107634183Y-72365870D01*
X107627350Y-72369388D01*
X107603272Y-72379950D01*
X107527740Y-72429298D01*
X107450265Y-72475463D01*
X107450258Y-72475468D01*
X107430203Y-72492452D01*
X107424043Y-72497046D01*
X107402034Y-72511426D01*
X107402024Y-72511434D01*
X107335648Y-72572538D01*
X107312757Y-72591926D01*
X107291555Y-72613128D01*
X107225179Y-72674231D01*
X107225171Y-72674240D01*
X107209020Y-72694989D01*
X107203931Y-72700751D01*
X105594166Y-74310516D01*
X105532843Y-74344001D01*
X105498376Y-74346570D01*
X105410000Y-74340778D01*
X105122161Y-74359644D01*
X105122155Y-74359645D01*
X105122150Y-74359646D01*
X104839254Y-74415917D01*
X104839239Y-74415921D01*
X104566094Y-74508642D01*
X104307393Y-74636219D01*
X104307386Y-74636223D01*
X104067547Y-74796478D01*
X103850672Y-74986672D01*
X103660478Y-75203547D01*
X103500223Y-75443386D01*
X103500219Y-75443393D01*
X103372642Y-75702094D01*
X103279921Y-75975239D01*
X103279917Y-75975254D01*
X103223646Y-76258150D01*
X103223644Y-76258161D01*
X103204779Y-76545992D01*
X103204778Y-76546000D01*
X102535222Y-76546000D01*
X102516356Y-76258161D01*
X102460081Y-75975247D01*
X102367359Y-75702098D01*
X102239778Y-75443389D01*
X102201942Y-75386763D01*
X102079521Y-75203547D01*
X101889327Y-74986672D01*
X101672452Y-74796478D01*
X101432613Y-74636223D01*
X101432606Y-74636219D01*
X101173905Y-74508642D01*
X100900760Y-74415921D01*
X100900754Y-74415919D01*
X100900753Y-74415919D01*
X100900751Y-74415918D01*
X100900745Y-74415917D01*
X100617849Y-74359646D01*
X100617839Y-74359644D01*
X100330000Y-74340778D01*
X100042161Y-74359644D01*
X100042155Y-74359645D01*
X100042150Y-74359646D01*
X99759254Y-74415917D01*
X99759239Y-74415921D01*
X99486094Y-74508642D01*
X99227393Y-74636219D01*
X99227386Y-74636223D01*
X98987547Y-74796478D01*
X98770672Y-74986672D01*
X98580478Y-75203547D01*
X98420223Y-75443386D01*
X98420219Y-75443393D01*
X98292642Y-75702094D01*
X98199921Y-75975239D01*
X98199917Y-75975254D01*
X98143646Y-76258150D01*
X98143644Y-76258161D01*
X98124779Y-76545992D01*
X98124778Y-76546000D01*
X98130570Y-76634375D01*
X98115311Y-76702558D01*
X98094516Y-76730165D01*
X96830502Y-77994181D01*
X96769179Y-78027666D01*
X96742821Y-78030500D01*
X92063386Y-78030500D01*
X91996347Y-78010815D01*
X91950592Y-77958011D01*
X91940648Y-77888853D01*
X91954554Y-77847072D01*
X91994367Y-77774161D01*
X92094369Y-77506046D01*
X92155196Y-77226428D01*
X92175610Y-76941000D01*
X92155196Y-76655572D01*
X92131358Y-76545992D01*
X92094371Y-76375962D01*
X92094370Y-76375960D01*
X92094369Y-76375954D01*
X91994367Y-76107839D01*
X91936072Y-76001081D01*
X91921221Y-75932810D01*
X91945637Y-75867345D01*
X92001571Y-75825473D01*
X92014442Y-75821456D01*
X92042001Y-75814477D01*
X92130299Y-75795964D01*
X92154794Y-75786404D01*
X92162102Y-75784063D01*
X92187591Y-75777610D01*
X92270194Y-75741376D01*
X92354238Y-75708583D01*
X92376831Y-75695118D01*
X92383650Y-75691609D01*
X92407728Y-75681049D01*
X92483252Y-75631705D01*
X92560740Y-75585533D01*
X92580803Y-75568540D01*
X92586951Y-75563955D01*
X92608969Y-75549571D01*
X92675340Y-75488472D01*
X92698235Y-75469082D01*
X92719458Y-75447858D01*
X92727114Y-75440810D01*
X92785825Y-75386764D01*
X92801978Y-75366008D01*
X92807052Y-75360263D01*
X96798263Y-71369052D01*
X96804008Y-71363978D01*
X96824764Y-71347825D01*
X96885858Y-71281458D01*
X96907078Y-71260239D01*
X96907078Y-71260238D01*
X96907082Y-71260235D01*
X96926472Y-71237340D01*
X96987571Y-71170969D01*
X97001955Y-71148951D01*
X97006540Y-71142803D01*
X97023533Y-71122740D01*
X97069705Y-71045252D01*
X97119049Y-70969728D01*
X97129609Y-70945650D01*
X97133118Y-70938831D01*
X97146583Y-70916238D01*
X97179375Y-70832197D01*
X97215610Y-70749591D01*
X97222062Y-70724109D01*
X97224405Y-70716792D01*
X97233964Y-70692298D01*
X97252477Y-70604004D01*
X97274620Y-70516563D01*
X97276790Y-70490364D01*
X97277896Y-70482769D01*
X97283294Y-70457031D01*
X97287022Y-70366891D01*
X97289500Y-70336990D01*
X97289500Y-70306986D01*
X97293228Y-70216853D01*
X97289975Y-70190762D01*
X97289500Y-70183090D01*
X97289500Y-67669949D01*
X97309185Y-67602910D01*
X97331742Y-67576720D01*
X97398327Y-67518327D01*
X97588520Y-67301454D01*
X97748778Y-67061611D01*
X97876359Y-66802902D01*
X97969081Y-66529753D01*
X98025356Y-66246839D01*
X98044222Y-65959000D01*
X98713778Y-65959000D01*
X98732644Y-66246837D01*
X98732646Y-66246849D01*
X98788917Y-66529745D01*
X98788921Y-66529760D01*
X98881642Y-66802905D01*
X99009219Y-67061606D01*
X99009223Y-67061613D01*
X99169478Y-67301452D01*
X99359672Y-67518327D01*
X99468950Y-67614161D01*
X99576546Y-67708520D01*
X99816389Y-67868778D01*
X100075098Y-67996359D01*
X100348247Y-68089081D01*
X100631161Y-68145356D01*
X100919000Y-68164222D01*
X101206839Y-68145356D01*
X101489753Y-68089081D01*
X101762902Y-67996359D01*
X102021611Y-67868778D01*
X102261454Y-67708520D01*
X102478327Y-67518327D01*
X102668520Y-67301454D01*
X102828778Y-67061611D01*
X102833686Y-67051657D01*
X102880990Y-67000238D01*
X102944899Y-66982500D01*
X108768843Y-66982500D01*
X108816296Y-66991939D01*
X108977886Y-67058872D01*
X108977887Y-67058872D01*
X108977889Y-67058873D01*
X109222852Y-67117683D01*
X109474000Y-67137449D01*
X109725148Y-67117683D01*
X109970111Y-67058873D01*
X110202859Y-66962466D01*
X110417659Y-66830836D01*
X110609224Y-66667224D01*
X110772836Y-66475659D01*
X110904466Y-66260859D01*
X111000873Y-66028111D01*
X111059683Y-65783148D01*
X111079449Y-65532000D01*
X111059683Y-65280852D01*
X111000873Y-65035889D01*
X110958493Y-64933574D01*
X110904466Y-64803140D01*
X110772839Y-64588346D01*
X110772838Y-64588343D01*
X110735875Y-64545066D01*
X110609224Y-64396776D01*
X110436216Y-64249013D01*
X110417656Y-64233161D01*
X110417653Y-64233160D01*
X110202859Y-64101533D01*
X109970110Y-64005126D01*
X109725151Y-63946317D01*
X109474000Y-63926551D01*
X109222848Y-63946317D01*
X108977886Y-64005127D01*
X108816296Y-64072061D01*
X108768843Y-64081500D01*
X102107533Y-64081500D01*
X102040494Y-64061815D01*
X102038642Y-64060602D01*
X102021612Y-64049223D01*
X102021611Y-64049222D01*
X102021609Y-64049221D01*
X102021606Y-64049219D01*
X102021607Y-64049219D01*
X101762905Y-63921642D01*
X101489760Y-63828921D01*
X101489754Y-63828919D01*
X101489753Y-63828919D01*
X101489751Y-63828918D01*
X101489745Y-63828917D01*
X101206849Y-63772646D01*
X101206839Y-63772644D01*
X100919000Y-63753778D01*
X100631161Y-63772644D01*
X100631155Y-63772645D01*
X100631150Y-63772646D01*
X100348254Y-63828917D01*
X100348239Y-63828921D01*
X100075094Y-63921642D01*
X99816393Y-64049219D01*
X99816386Y-64049223D01*
X99576547Y-64209478D01*
X99359672Y-64399672D01*
X99169478Y-64616547D01*
X99009223Y-64856386D01*
X99009219Y-64856393D01*
X98881642Y-65115094D01*
X98788921Y-65388239D01*
X98788917Y-65388254D01*
X98732646Y-65671150D01*
X98732644Y-65671162D01*
X98713778Y-65959000D01*
X98044222Y-65959000D01*
X98025356Y-65671161D01*
X97969081Y-65388247D01*
X97876359Y-65115098D01*
X97748778Y-64856389D01*
X97609595Y-64648087D01*
X97588521Y-64616547D01*
X97398327Y-64399672D01*
X97181452Y-64209478D01*
X96941613Y-64049223D01*
X96941606Y-64049219D01*
X96682905Y-63921642D01*
X96409760Y-63828921D01*
X96409754Y-63828919D01*
X96409753Y-63828919D01*
X96409751Y-63828918D01*
X96409745Y-63828917D01*
X96126849Y-63772646D01*
X96126839Y-63772644D01*
X95839000Y-63753778D01*
X95551161Y-63772644D01*
X95551155Y-63772645D01*
X95551150Y-63772646D01*
X95268254Y-63828917D01*
X95268239Y-63828921D01*
X94995094Y-63921642D01*
X94736393Y-64049219D01*
X94736386Y-64049223D01*
X94496547Y-64209478D01*
X94279672Y-64399672D01*
X94089478Y-64616547D01*
X93929223Y-64856386D01*
X93929219Y-64856393D01*
X93801642Y-65115094D01*
X93708921Y-65388239D01*
X93708917Y-65388254D01*
X93652646Y-65671150D01*
X93652644Y-65671162D01*
X93633778Y-65959000D01*
X93652644Y-66246837D01*
X93652646Y-66246849D01*
X93708917Y-66529745D01*
X93708921Y-66529760D01*
X93801642Y-66802905D01*
X93929219Y-67061606D01*
X93929223Y-67061613D01*
X94089478Y-67301452D01*
X94089480Y-67301454D01*
X94279673Y-67518327D01*
X94279680Y-67518333D01*
X94346258Y-67576720D01*
X94383683Y-67635722D01*
X94388500Y-67669949D01*
X94388500Y-69624820D01*
X94368815Y-69691859D01*
X94352181Y-69712501D01*
X92369478Y-71695203D01*
X92308155Y-71728688D01*
X92238463Y-71723704D01*
X92182530Y-71681832D01*
X92158113Y-71616370D01*
X92155196Y-71575572D01*
X92109164Y-71363967D01*
X92094371Y-71295962D01*
X92094370Y-71295960D01*
X92094369Y-71295954D01*
X91994367Y-71027839D01*
X91962635Y-70969727D01*
X91857229Y-70776690D01*
X91857228Y-70776689D01*
X91857226Y-70776685D01*
X91773849Y-70665307D01*
X91749434Y-70599847D01*
X91764285Y-70531574D01*
X91773841Y-70516703D01*
X91857226Y-70405315D01*
X91994367Y-70154161D01*
X92094369Y-69886046D01*
X92155196Y-69606428D01*
X92175610Y-69321000D01*
X92155196Y-69035572D01*
X92094369Y-68755954D01*
X91994367Y-68487839D01*
X91857226Y-68236685D01*
X91773849Y-68125307D01*
X91749434Y-68059847D01*
X91764285Y-67991574D01*
X91773841Y-67976703D01*
X91857226Y-67865315D01*
X91994367Y-67614161D01*
X92094369Y-67346046D01*
X92155196Y-67066428D01*
X92175610Y-66781000D01*
X92155196Y-66495572D01*
X92150864Y-66475659D01*
X92094371Y-66215962D01*
X92094370Y-66215960D01*
X92094369Y-66215954D01*
X91994367Y-65947839D01*
X91857226Y-65696685D01*
X91773849Y-65585307D01*
X91749434Y-65519847D01*
X91764285Y-65451574D01*
X91773841Y-65436703D01*
X91857226Y-65325315D01*
X91994367Y-65074161D01*
X92094369Y-64806046D01*
X92095001Y-64803140D01*
X92155195Y-64526433D01*
X92155195Y-64526432D01*
X92155196Y-64526428D01*
X92175037Y-64249011D01*
X92175610Y-64241001D01*
X92175610Y-64240998D01*
X92167473Y-64127224D01*
X92155196Y-63955572D01*
X92150864Y-63935659D01*
X92094371Y-63675962D01*
X92094370Y-63675960D01*
X92094369Y-63675954D01*
X91994367Y-63407839D01*
X91905996Y-63246001D01*
X91857229Y-63156690D01*
X91857224Y-63156682D01*
X91685745Y-62927612D01*
X91685729Y-62927594D01*
X91483405Y-62725270D01*
X91483387Y-62725254D01*
X91254317Y-62553775D01*
X91254309Y-62553770D01*
X91003166Y-62416635D01*
X91003167Y-62416635D01*
X90895915Y-62376632D01*
X90735046Y-62316631D01*
X90735043Y-62316630D01*
X90735037Y-62316628D01*
X90455433Y-62255804D01*
X90170001Y-62235390D01*
X90169999Y-62235390D01*
X89884566Y-62255804D01*
X89604962Y-62316628D01*
X89336833Y-62416635D01*
X89085690Y-62553770D01*
X89085682Y-62553775D01*
X88856612Y-62725254D01*
X88856594Y-62725270D01*
X88654270Y-62927594D01*
X88654254Y-62927612D01*
X88482775Y-63156682D01*
X88482770Y-63156690D01*
X88345635Y-63407833D01*
X88245628Y-63675962D01*
X88184804Y-63955566D01*
X88164390Y-64240998D01*
X88164390Y-64241001D01*
X88184804Y-64526433D01*
X88245628Y-64806037D01*
X88245630Y-64806043D01*
X88245631Y-64806046D01*
X88293196Y-64933573D01*
X88345635Y-65074166D01*
X88482770Y-65325309D01*
X88482771Y-65325310D01*
X88482774Y-65325315D01*
X88566147Y-65436689D01*
X88566148Y-65436690D01*
X88590564Y-65502155D01*
X88575712Y-65570428D01*
X88566148Y-65585310D01*
X88482770Y-65696690D01*
X88345635Y-65947833D01*
X88245628Y-66215962D01*
X88184804Y-66495566D01*
X88164390Y-66780998D01*
X88164390Y-66781001D01*
X88184804Y-67066433D01*
X88245628Y-67346037D01*
X88245630Y-67346043D01*
X88245631Y-67346046D01*
X88309889Y-67518327D01*
X88345635Y-67614166D01*
X88482770Y-67865309D01*
X88482771Y-67865310D01*
X88482774Y-67865315D01*
X88485368Y-67868780D01*
X88566148Y-67976690D01*
X88590564Y-68042155D01*
X88575712Y-68110428D01*
X88566150Y-68125306D01*
X88537019Y-68164222D01*
X88482770Y-68236690D01*
X88345635Y-68487833D01*
X88345632Y-68487840D01*
X88284145Y-68652690D01*
X88255645Y-68697036D01*
X66969398Y-89983283D01*
X66908075Y-90016768D01*
X66838383Y-90011784D01*
X66782450Y-89969912D01*
X66758033Y-89904448D01*
X66758033Y-89886756D01*
X66767914Y-89748611D01*
X66775610Y-89641000D01*
X66775182Y-89635021D01*
X66765584Y-89500817D01*
X66755196Y-89355572D01*
X66724999Y-89216760D01*
X66694371Y-89075962D01*
X66694370Y-89075960D01*
X66694369Y-89075954D01*
X66594367Y-88807839D01*
X66554554Y-88734928D01*
X66457229Y-88556690D01*
X66457228Y-88556689D01*
X66457226Y-88556685D01*
X66373849Y-88445307D01*
X66349434Y-88379847D01*
X66364285Y-88311574D01*
X66373841Y-88296703D01*
X66457226Y-88185315D01*
X66594367Y-87934161D01*
X66694369Y-87666046D01*
X66719372Y-87551109D01*
X66755195Y-87386433D01*
X66755195Y-87386432D01*
X66755196Y-87386428D01*
X66775610Y-87101000D01*
X66755196Y-86815572D01*
X66710181Y-86608642D01*
X66694371Y-86535962D01*
X66694370Y-86535960D01*
X66694369Y-86535954D01*
X66594367Y-86267839D01*
X66554554Y-86194928D01*
X66457229Y-86016690D01*
X66457228Y-86016689D01*
X66457226Y-86016685D01*
X66373849Y-85905307D01*
X66349434Y-85839847D01*
X66364285Y-85771574D01*
X66373841Y-85756703D01*
X66457226Y-85645315D01*
X66594367Y-85394161D01*
X66694369Y-85126046D01*
X66755196Y-84846428D01*
X66775610Y-84561000D01*
X66755196Y-84275572D01*
X66729038Y-84155327D01*
X66694371Y-83995962D01*
X66694370Y-83995960D01*
X66694369Y-83995954D01*
X66594367Y-83727839D01*
X66578408Y-83698613D01*
X66457229Y-83476690D01*
X66457228Y-83476689D01*
X66457226Y-83476685D01*
X66373849Y-83365307D01*
X66349434Y-83299847D01*
X66364285Y-83231574D01*
X66373841Y-83216703D01*
X66457226Y-83105315D01*
X66594367Y-82854161D01*
X66694369Y-82586046D01*
X66754394Y-82310113D01*
X66755195Y-82306433D01*
X66755195Y-82306432D01*
X66755196Y-82306428D01*
X66775610Y-82021000D01*
X66755196Y-81735572D01*
X66715081Y-81551167D01*
X66694371Y-81455962D01*
X66694370Y-81455960D01*
X66694369Y-81455954D01*
X66594367Y-81187839D01*
X66511823Y-81036672D01*
X66457229Y-80936690D01*
X66457228Y-80936689D01*
X66457226Y-80936685D01*
X66373849Y-80825307D01*
X66349434Y-80759847D01*
X66364285Y-80691574D01*
X66373841Y-80676703D01*
X66457226Y-80565315D01*
X66594367Y-80314161D01*
X66694369Y-80046046D01*
X66697371Y-80032247D01*
X66755195Y-79766433D01*
X66755195Y-79766432D01*
X66755196Y-79766428D01*
X66775610Y-79481000D01*
X66755196Y-79195572D01*
X66697766Y-78931572D01*
X66694371Y-78915962D01*
X66694370Y-78915960D01*
X66694369Y-78915954D01*
X66594367Y-78647839D01*
X66489494Y-78455780D01*
X66457229Y-78396690D01*
X66457228Y-78396689D01*
X66457226Y-78396685D01*
X66373849Y-78285307D01*
X66349434Y-78219847D01*
X66364285Y-78151574D01*
X66373841Y-78136703D01*
X66457226Y-78025315D01*
X66594367Y-77774161D01*
X66694369Y-77506046D01*
X66755196Y-77226428D01*
X66775610Y-76941000D01*
X66755196Y-76655572D01*
X66731358Y-76545992D01*
X66694371Y-76375962D01*
X66694370Y-76375960D01*
X66694369Y-76375954D01*
X66594367Y-76107839D01*
X66457226Y-75856685D01*
X66373849Y-75745307D01*
X66349434Y-75679847D01*
X66364285Y-75611574D01*
X66373841Y-75596703D01*
X66457226Y-75485315D01*
X66594367Y-75234161D01*
X66694369Y-74966046D01*
X66754394Y-74690113D01*
X66755195Y-74686433D01*
X66755195Y-74686432D01*
X66755196Y-74686428D01*
X66775610Y-74401000D01*
X66755196Y-74115572D01*
X66715081Y-73931167D01*
X66694371Y-73835962D01*
X66694370Y-73835960D01*
X66694369Y-73835954D01*
X66594367Y-73567839D01*
X66496621Y-73388832D01*
X66457229Y-73316690D01*
X66457228Y-73316689D01*
X66457226Y-73316685D01*
X66373849Y-73205307D01*
X66349434Y-73139847D01*
X66364285Y-73071574D01*
X66373841Y-73056703D01*
X66457226Y-72945315D01*
X66594367Y-72694161D01*
X66694369Y-72426046D01*
X66706694Y-72369388D01*
X66755195Y-72146433D01*
X66755195Y-72146432D01*
X66755196Y-72146428D01*
X66775610Y-71861000D01*
X66755196Y-71575572D01*
X66709164Y-71363967D01*
X66694371Y-71295962D01*
X66694370Y-71295960D01*
X66694369Y-71295954D01*
X66594367Y-71027839D01*
X66562635Y-70969727D01*
X66457229Y-70776690D01*
X66457228Y-70776689D01*
X66457226Y-70776685D01*
X66373849Y-70665307D01*
X66349434Y-70599847D01*
X66364285Y-70531574D01*
X66373841Y-70516703D01*
X66457226Y-70405315D01*
X66594367Y-70154161D01*
X66694369Y-69886046D01*
X66755196Y-69606428D01*
X66775610Y-69321000D01*
X66755196Y-69035572D01*
X66694369Y-68755954D01*
X66594367Y-68487839D01*
X66457226Y-68236685D01*
X66373849Y-68125307D01*
X66349434Y-68059847D01*
X66364285Y-67991574D01*
X66373841Y-67976703D01*
X66457226Y-67865315D01*
X66594367Y-67614161D01*
X66694369Y-67346046D01*
X66755196Y-67066428D01*
X66775610Y-66781000D01*
X66755196Y-66495572D01*
X66750864Y-66475659D01*
X66694371Y-66215962D01*
X66694370Y-66215960D01*
X66694369Y-66215954D01*
X66594367Y-65947839D01*
X66457226Y-65696685D01*
X66373849Y-65585307D01*
X66349434Y-65519847D01*
X66364285Y-65451574D01*
X66373841Y-65436703D01*
X66457226Y-65325315D01*
X66594367Y-65074161D01*
X66694369Y-64806046D01*
X66695001Y-64803140D01*
X66755195Y-64526433D01*
X66755195Y-64526432D01*
X66755196Y-64526428D01*
X66775037Y-64249011D01*
X66775610Y-64241001D01*
X66775610Y-64240998D01*
X66767473Y-64127224D01*
X66755196Y-63955572D01*
X66750864Y-63935659D01*
X66694371Y-63675962D01*
X66694370Y-63675960D01*
X66694369Y-63675954D01*
X66594367Y-63407839D01*
X66505996Y-63246001D01*
X66457229Y-63156690D01*
X66457224Y-63156682D01*
X66285745Y-62927612D01*
X66285729Y-62927594D01*
X66083405Y-62725270D01*
X66083387Y-62725254D01*
X65854317Y-62553775D01*
X65854309Y-62553770D01*
X65603166Y-62416635D01*
X65603167Y-62416635D01*
X65495915Y-62376632D01*
X65335046Y-62316631D01*
X65335043Y-62316630D01*
X65335037Y-62316628D01*
X65055433Y-62255804D01*
X64770001Y-62235390D01*
X64769999Y-62235390D01*
X64484566Y-62255804D01*
X64204962Y-62316628D01*
X63936833Y-62416635D01*
X63685690Y-62553770D01*
X63685682Y-62553775D01*
X63456612Y-62725254D01*
X63456594Y-62725270D01*
X63254270Y-62927594D01*
X63254254Y-62927612D01*
X63082775Y-63156682D01*
X63082770Y-63156690D01*
X62945635Y-63407833D01*
X62845628Y-63675962D01*
X62784804Y-63955566D01*
X62764390Y-64240998D01*
X62764390Y-64241001D01*
X62784804Y-64526433D01*
X62845628Y-64806037D01*
X62845630Y-64806043D01*
X62845631Y-64806046D01*
X62893196Y-64933573D01*
X62945635Y-65074166D01*
X63082770Y-65325309D01*
X63082771Y-65325310D01*
X63082774Y-65325315D01*
X63166147Y-65436689D01*
X63166148Y-65436690D01*
X63190564Y-65502155D01*
X63175712Y-65570428D01*
X63166148Y-65585310D01*
X63082770Y-65696690D01*
X62945635Y-65947833D01*
X62845628Y-66215962D01*
X62784804Y-66495566D01*
X62764390Y-66780998D01*
X62764390Y-66781001D01*
X62784804Y-67066433D01*
X62845628Y-67346037D01*
X62845630Y-67346043D01*
X62845631Y-67346046D01*
X62909889Y-67518327D01*
X62945635Y-67614166D01*
X63082770Y-67865309D01*
X63082771Y-67865310D01*
X63082774Y-67865315D01*
X63085368Y-67868780D01*
X63166148Y-67976690D01*
X63190564Y-68042155D01*
X63175712Y-68110428D01*
X63166150Y-68125306D01*
X63137019Y-68164222D01*
X63082770Y-68236690D01*
X62945635Y-68487833D01*
X62845628Y-68755962D01*
X62784804Y-69035566D01*
X62764390Y-69320998D01*
X62764390Y-69321001D01*
X62784804Y-69606433D01*
X62845628Y-69886037D01*
X62945635Y-70154166D01*
X63082770Y-70405309D01*
X63082771Y-70405310D01*
X63082774Y-70405315D01*
X63146443Y-70490367D01*
X63166148Y-70516690D01*
X63190564Y-70582155D01*
X63175712Y-70650428D01*
X63166150Y-70665306D01*
X63127614Y-70716785D01*
X63082770Y-70776690D01*
X62945635Y-71027833D01*
X62845628Y-71295962D01*
X62784804Y-71575566D01*
X62764390Y-71860998D01*
X62764390Y-71861001D01*
X62784804Y-72146433D01*
X62845628Y-72426037D01*
X62845630Y-72426043D01*
X62845631Y-72426046D01*
X62938201Y-72674236D01*
X62945635Y-72694166D01*
X63082770Y-72945309D01*
X63166148Y-73056690D01*
X63190564Y-73122155D01*
X63175712Y-73190428D01*
X63166148Y-73205310D01*
X63082770Y-73316690D01*
X62945635Y-73567833D01*
X62845628Y-73835962D01*
X62784804Y-74115566D01*
X62764390Y-74400998D01*
X62764390Y-74401001D01*
X62784804Y-74686433D01*
X62845628Y-74966037D01*
X62845630Y-74966043D01*
X62845631Y-74966046D01*
X62895579Y-75099961D01*
X62945634Y-75234163D01*
X62985446Y-75307072D01*
X63000298Y-75375345D01*
X62975882Y-75440810D01*
X62919948Y-75482682D01*
X62876614Y-75490500D01*
X62861179Y-75490500D01*
X62794140Y-75470815D01*
X62773498Y-75454181D01*
X48343087Y-61023770D01*
X48309602Y-60962447D01*
X48314586Y-60892755D01*
X48356458Y-60836822D01*
X48421922Y-60812405D01*
X48440484Y-60812470D01*
X48493000Y-60816604D01*
X48550947Y-60812043D01*
X48555427Y-60811691D01*
X48560293Y-60811500D01*
X62950583Y-60811500D01*
X63017622Y-60831185D01*
X63046683Y-60857137D01*
X63058891Y-60872109D01*
X63216593Y-61000698D01*
X63396951Y-61094909D01*
X63592582Y-61150886D01*
X63711963Y-61161500D01*
X63711964Y-61161499D01*
X63711965Y-61161500D01*
X63711966Y-61161500D01*
X64618851Y-61161499D01*
X65828036Y-61161499D01*
X65947418Y-61150886D01*
X66143049Y-61094909D01*
X66323407Y-61000698D01*
X66481109Y-60872109D01*
X66609698Y-60714407D01*
X66703909Y-60534049D01*
X66759886Y-60338418D01*
X66770500Y-60219037D01*
X66770499Y-58102964D01*
X66759886Y-57983582D01*
X66703909Y-57787951D01*
X66609698Y-57607593D01*
X66530529Y-57510500D01*
X66481109Y-57449890D01*
X66323409Y-57321304D01*
X66323410Y-57321304D01*
X66323407Y-57321302D01*
X66143049Y-57227091D01*
X66143048Y-57227090D01*
X66143045Y-57227089D01*
X66025829Y-57193550D01*
X65947418Y-57171114D01*
X65947415Y-57171113D01*
X65947413Y-57171113D01*
X65856983Y-57163073D01*
X65828037Y-57160500D01*
X65828035Y-57160500D01*
X65828034Y-57160500D01*
X64921148Y-57160500D01*
X63711964Y-57160501D01*
X63682727Y-57163100D01*
X63592584Y-57171113D01*
X63396954Y-57227089D01*
X63306772Y-57274196D01*
X63216593Y-57321302D01*
X63216591Y-57321303D01*
X63216590Y-57321304D01*
X63058893Y-57449889D01*
X63046685Y-57464861D01*
X62989063Y-57504378D01*
X62950583Y-57510500D01*
X49228022Y-57510500D01*
X49160983Y-57490815D01*
X49140341Y-57474181D01*
X47914819Y-56248659D01*
X47881334Y-56187336D01*
X47878500Y-56160978D01*
X47878500Y-55480233D01*
X47893668Y-55420806D01*
X47915574Y-55380689D01*
X48008077Y-55132678D01*
X48064343Y-54874026D01*
X48083227Y-54610000D01*
X48064343Y-54345974D01*
X48008077Y-54087322D01*
X47915574Y-53839311D01*
X47788716Y-53606989D01*
X47788714Y-53606986D01*
X47630093Y-53395092D01*
X47630077Y-53395074D01*
X47442925Y-53207922D01*
X47442907Y-53207906D01*
X47231013Y-53049285D01*
X47231005Y-53049280D01*
X46998694Y-52922428D01*
X46998690Y-52922426D01*
X46750673Y-52829921D01*
X46492034Y-52773658D01*
X46492027Y-52773657D01*
X46228001Y-52754773D01*
X46227999Y-52754773D01*
X45963972Y-52773657D01*
X45963965Y-52773658D01*
X45705326Y-52829921D01*
X45457309Y-52922426D01*
X45457305Y-52922428D01*
X45224994Y-53049280D01*
X45224986Y-53049285D01*
X45111756Y-53134048D01*
X45046291Y-53158465D01*
X44978019Y-53143613D01*
X44933639Y-53102605D01*
X44918705Y-53079747D01*
X44872533Y-53002260D01*
X44855544Y-52982200D01*
X44850949Y-52976037D01*
X44846882Y-52969813D01*
X44836571Y-52954031D01*
X44775472Y-52887659D01*
X44756078Y-52864761D01*
X44756075Y-52864758D01*
X44734859Y-52843541D01*
X44673767Y-52777178D01*
X44673766Y-52777177D01*
X44673764Y-52777175D01*
X44653015Y-52761025D01*
X44647253Y-52755936D01*
X43223504Y-51332187D01*
X63439500Y-51332187D01*
X63457546Y-51451909D01*
X63478604Y-51591615D01*
X63478605Y-51591617D01*
X63478606Y-51591623D01*
X63555938Y-51842326D01*
X63669767Y-52078696D01*
X63669768Y-52078697D01*
X63669770Y-52078700D01*
X63669772Y-52078704D01*
X63764241Y-52217264D01*
X63817567Y-52295479D01*
X63996014Y-52487801D01*
X63996018Y-52487804D01*
X63996019Y-52487805D01*
X64201143Y-52651386D01*
X64428357Y-52782568D01*
X64672584Y-52878420D01*
X64928370Y-52936802D01*
X64928376Y-52936802D01*
X64928379Y-52936803D01*
X65124500Y-52951500D01*
X65124506Y-52951500D01*
X65255500Y-52951500D01*
X65451620Y-52936803D01*
X65451622Y-52936802D01*
X65451630Y-52936802D01*
X65707416Y-52878420D01*
X65951643Y-52782568D01*
X66178857Y-52651386D01*
X66383981Y-52487805D01*
X66562433Y-52295479D01*
X66710228Y-52078704D01*
X66824063Y-51842323D01*
X66901396Y-51591615D01*
X66940500Y-51332182D01*
X66940500Y-51069818D01*
X66901396Y-50810385D01*
X66824063Y-50559677D01*
X66812121Y-50534880D01*
X66710232Y-50323303D01*
X66710231Y-50323302D01*
X66710230Y-50323301D01*
X66710228Y-50323296D01*
X66562433Y-50106521D01*
X66546158Y-50088981D01*
X66383985Y-49914198D01*
X66327891Y-49869465D01*
X66178857Y-49750614D01*
X65951643Y-49619432D01*
X65707416Y-49523580D01*
X65707411Y-49523578D01*
X65707402Y-49523576D01*
X65489818Y-49473914D01*
X65451630Y-49465198D01*
X65451629Y-49465197D01*
X65451625Y-49465197D01*
X65451620Y-49465196D01*
X65255500Y-49450500D01*
X65255494Y-49450500D01*
X65124506Y-49450500D01*
X65124500Y-49450500D01*
X64928379Y-49465196D01*
X64928374Y-49465197D01*
X64672597Y-49523576D01*
X64672578Y-49523582D01*
X64428356Y-49619432D01*
X64201143Y-49750614D01*
X63996014Y-49914198D01*
X63817567Y-50106520D01*
X63669768Y-50323302D01*
X63669767Y-50323303D01*
X63555938Y-50559673D01*
X63478606Y-50810376D01*
X63478605Y-50810381D01*
X63478604Y-50810385D01*
X63466446Y-50891045D01*
X63439500Y-51069812D01*
X63439500Y-51332187D01*
X43223504Y-51332187D01*
X41986063Y-50094746D01*
X41980972Y-50088981D01*
X41964826Y-50068237D01*
X41964821Y-50068232D01*
X41898459Y-50007141D01*
X41877237Y-49985920D01*
X41871871Y-49981375D01*
X41854340Y-49966527D01*
X41787969Y-49905429D01*
X41787964Y-49905425D01*
X41765957Y-49891047D01*
X41759794Y-49886451D01*
X41739738Y-49869465D01*
X41662252Y-49823294D01*
X41586726Y-49773950D01*
X41586720Y-49773946D01*
X41562657Y-49763391D01*
X41555819Y-49759872D01*
X41533240Y-49746418D01*
X41533233Y-49746415D01*
X41449194Y-49713623D01*
X41366590Y-49677389D01*
X41341106Y-49670935D01*
X41333784Y-49668589D01*
X41309306Y-49659038D01*
X41309300Y-49659036D01*
X41265150Y-49649779D01*
X41221001Y-49640522D01*
X41191349Y-49633013D01*
X41133561Y-49618379D01*
X41107369Y-49616209D01*
X41099761Y-49615100D01*
X41074041Y-49609707D01*
X41074028Y-49609705D01*
X40983892Y-49605977D01*
X40976415Y-49605357D01*
X40953990Y-49603500D01*
X40953987Y-49603500D01*
X40923986Y-49603500D01*
X40833854Y-49599772D01*
X40833853Y-49599772D01*
X40807762Y-49603024D01*
X40800090Y-49603500D01*
X37939910Y-49603500D01*
X37932237Y-49603024D01*
X37906147Y-49599772D01*
X37906145Y-49599772D01*
X37816014Y-49603500D01*
X37786010Y-49603500D01*
X37756108Y-49605977D01*
X37665964Y-49609706D01*
X37640239Y-49615100D01*
X37632630Y-49616209D01*
X37606444Y-49618378D01*
X37606436Y-49618380D01*
X37562717Y-49629451D01*
X37518998Y-49640522D01*
X37489565Y-49646693D01*
X37430699Y-49659036D01*
X37430696Y-49659038D01*
X37406206Y-49668593D01*
X37398885Y-49670938D01*
X37373411Y-49677389D01*
X37290805Y-49713623D01*
X37206766Y-49746415D01*
X37206761Y-49746417D01*
X37184178Y-49759873D01*
X37177344Y-49763391D01*
X37153276Y-49773948D01*
X37153264Y-49773955D01*
X37077747Y-49823294D01*
X37000260Y-49869467D01*
X36980201Y-49886454D01*
X36974041Y-49891046D01*
X36952035Y-49905425D01*
X36952031Y-49905429D01*
X36885659Y-49966527D01*
X36862763Y-49985920D01*
X36841541Y-50007141D01*
X36775179Y-50068231D01*
X36775170Y-50068241D01*
X36759022Y-50088986D01*
X36753934Y-50094747D01*
X34854747Y-51993934D01*
X34848986Y-51999022D01*
X34828241Y-52015170D01*
X34828231Y-52015179D01*
X34769760Y-52078696D01*
X34767141Y-52081541D01*
X34745922Y-52102761D01*
X34726527Y-52125659D01*
X34665425Y-52192035D01*
X34651046Y-52214041D01*
X34646454Y-52220201D01*
X34629467Y-52240260D01*
X34583294Y-52317747D01*
X34533955Y-52393264D01*
X34533948Y-52393276D01*
X34523391Y-52417344D01*
X34519873Y-52424178D01*
X34506417Y-52446761D01*
X34506415Y-52446766D01*
X34473623Y-52530805D01*
X34437389Y-52613411D01*
X34430938Y-52638885D01*
X34428593Y-52646206D01*
X34419037Y-52670699D01*
X34419036Y-52670699D01*
X34413209Y-52698492D01*
X34400522Y-52758998D01*
X34389451Y-52802717D01*
X34378380Y-52846436D01*
X34378378Y-52846444D01*
X34376209Y-52872630D01*
X34375100Y-52880239D01*
X34369706Y-52905964D01*
X34365977Y-52996108D01*
X34363500Y-53026013D01*
X34363500Y-53056013D01*
X34359771Y-53146145D01*
X34359771Y-53146146D01*
X34363023Y-53172233D01*
X34363500Y-53179909D01*
X34363500Y-57818090D01*
X34363024Y-57825762D01*
X34359772Y-57851853D01*
X34363500Y-57941986D01*
X34363500Y-57971990D01*
X34364690Y-57986353D01*
X34365977Y-58001892D01*
X34369705Y-58092028D01*
X34369707Y-58092041D01*
X34375100Y-58117761D01*
X34376209Y-58125369D01*
X34378379Y-58151561D01*
X34400522Y-58239000D01*
X34419036Y-58327300D01*
X34419038Y-58327306D01*
X34428589Y-58351784D01*
X34430935Y-58359106D01*
X34437389Y-58384590D01*
X34473623Y-58467194D01*
X34506415Y-58551233D01*
X34506418Y-58551240D01*
X34519872Y-58573819D01*
X34523391Y-58580657D01*
X34533946Y-58604720D01*
X34533950Y-58604726D01*
X34583294Y-58680252D01*
X34629465Y-58757738D01*
X34646451Y-58777794D01*
X34651047Y-58783957D01*
X34665425Y-58805964D01*
X34665429Y-58805969D01*
X34726527Y-58872340D01*
X34741375Y-58889871D01*
X34745920Y-58895237D01*
X34767141Y-58916459D01*
X34828232Y-58982821D01*
X34828237Y-58982826D01*
X34848981Y-58998972D01*
X34854746Y-59004063D01*
X58830936Y-82980253D01*
X58836025Y-82986015D01*
X58852175Y-83006764D01*
X58852177Y-83006766D01*
X58852178Y-83006767D01*
X58918541Y-83067859D01*
X58939758Y-83089075D01*
X58939761Y-83089078D01*
X58962659Y-83108472D01*
X59029031Y-83169571D01*
X59044813Y-83179882D01*
X59051037Y-83183949D01*
X59057200Y-83188544D01*
X59077261Y-83205534D01*
X59154747Y-83251705D01*
X59230272Y-83301049D01*
X59254349Y-83311609D01*
X59261174Y-83315122D01*
X59283762Y-83328583D01*
X59283766Y-83328584D01*
X59283769Y-83328586D01*
X59339747Y-83350428D01*
X59367805Y-83361376D01*
X59450409Y-83397610D01*
X59475897Y-83404063D01*
X59483198Y-83406402D01*
X59507701Y-83415964D01*
X59507703Y-83415964D01*
X59507708Y-83415966D01*
X59595998Y-83434477D01*
X59683437Y-83456620D01*
X59705973Y-83458487D01*
X59709628Y-83458790D01*
X59717238Y-83459899D01*
X59725547Y-83461640D01*
X59742969Y-83465294D01*
X59833108Y-83469022D01*
X59863010Y-83471500D01*
X59863012Y-83471500D01*
X59893014Y-83471500D01*
X59983147Y-83475228D01*
X60009237Y-83471975D01*
X60016910Y-83471500D01*
X60735820Y-83471500D01*
X60802859Y-83491185D01*
X60848614Y-83543989D01*
X60858558Y-83613147D01*
X60829533Y-83676703D01*
X60823501Y-83683181D01*
X56698747Y-87807934D01*
X56692986Y-87813022D01*
X56672241Y-87829170D01*
X56672231Y-87829179D01*
X56611141Y-87895541D01*
X56589922Y-87916761D01*
X56575184Y-87934161D01*
X56570527Y-87939659D01*
X56509425Y-88006035D01*
X56495046Y-88028041D01*
X56490454Y-88034201D01*
X56473467Y-88054260D01*
X56427294Y-88131747D01*
X56377955Y-88207264D01*
X56377948Y-88207276D01*
X56367391Y-88231344D01*
X56363873Y-88238178D01*
X56350417Y-88260761D01*
X56350415Y-88260766D01*
X56317623Y-88344805D01*
X56281389Y-88427411D01*
X56274938Y-88452885D01*
X56272593Y-88460206D01*
X56263037Y-88484699D01*
X56263036Y-88484699D01*
X56263036Y-88484701D01*
X56247391Y-88559318D01*
X56244522Y-88572999D01*
X56222380Y-88660436D01*
X56222378Y-88660444D01*
X56220209Y-88686630D01*
X56219100Y-88694239D01*
X56213706Y-88719964D01*
X56209977Y-88810108D01*
X56207500Y-88840013D01*
X56207500Y-88870013D01*
X56203771Y-88960145D01*
X56203771Y-88960146D01*
X56207023Y-88986233D01*
X56207500Y-88993909D01*
X56207500Y-91549820D01*
X56187815Y-91616859D01*
X56171181Y-91637501D01*
X51616310Y-96192371D01*
X51554987Y-96225856D01*
X51485295Y-96220872D01*
X51429362Y-96179000D01*
X51404945Y-96113536D01*
X51404945Y-96095850D01*
X51410227Y-96022000D01*
X51391343Y-95757974D01*
X51347008Y-95554166D01*
X51335078Y-95499326D01*
X51318107Y-95453825D01*
X51242574Y-95251311D01*
X51115716Y-95018989D01*
X51089402Y-94983837D01*
X50957093Y-94807092D01*
X50957077Y-94807074D01*
X50769925Y-94619922D01*
X50769907Y-94619906D01*
X50558013Y-94461285D01*
X50558005Y-94461280D01*
X50325694Y-94334428D01*
X50325690Y-94334426D01*
X50077673Y-94241921D01*
X49819034Y-94185658D01*
X49819027Y-94185657D01*
X49555001Y-94166773D01*
X49554999Y-94166773D01*
X49290972Y-94185657D01*
X49290965Y-94185658D01*
X49032326Y-94241921D01*
X48784310Y-94334426D01*
X48762815Y-94346163D01*
X48744192Y-94356332D01*
X48684766Y-94371500D01*
X45195022Y-94371500D01*
X45127983Y-94351815D01*
X45107341Y-94335181D01*
X44282588Y-93510428D01*
X43378650Y-92606490D01*
X43375367Y-92602939D01*
X43334689Y-92555311D01*
X43287070Y-92514640D01*
X43283507Y-92511347D01*
X42072819Y-91300659D01*
X42039334Y-91239336D01*
X42036500Y-91212978D01*
X42036500Y-88967305D01*
X42036691Y-88962439D01*
X42038941Y-88933849D01*
X42041605Y-88900000D01*
X42021222Y-88641007D01*
X41960573Y-88388390D01*
X41885553Y-88207276D01*
X41861155Y-88148373D01*
X41773928Y-88006031D01*
X41725413Y-87926861D01*
X41631269Y-87816633D01*
X41556689Y-87729311D01*
X41509064Y-87688635D01*
X41505501Y-87685342D01*
X35100161Y-81280001D01*
X36435273Y-81280001D01*
X36454157Y-81544027D01*
X36454158Y-81544034D01*
X36510421Y-81802673D01*
X36602926Y-82050690D01*
X36602928Y-82050694D01*
X36729780Y-82283005D01*
X36729785Y-82283013D01*
X36888406Y-82494907D01*
X36888422Y-82494925D01*
X37075574Y-82682077D01*
X37075592Y-82682093D01*
X37287486Y-82840714D01*
X37287494Y-82840719D01*
X37519805Y-82967571D01*
X37519809Y-82967573D01*
X37519811Y-82967574D01*
X37767822Y-83060077D01*
X37767825Y-83060077D01*
X37767826Y-83060078D01*
X37803595Y-83067859D01*
X38026474Y-83116343D01*
X38270160Y-83133772D01*
X38290499Y-83135227D01*
X38290500Y-83135227D01*
X38290501Y-83135227D01*
X38309385Y-83133876D01*
X38554526Y-83116343D01*
X38813178Y-83060077D01*
X39061189Y-82967574D01*
X39293511Y-82840716D01*
X39454821Y-82719961D01*
X39486190Y-82696479D01*
X39551654Y-82672062D01*
X39619927Y-82686914D01*
X39634810Y-82696479D01*
X39827486Y-82840714D01*
X39827494Y-82840719D01*
X40059805Y-82967571D01*
X40059809Y-82967573D01*
X40059811Y-82967574D01*
X40307822Y-83060077D01*
X40307825Y-83060077D01*
X40307826Y-83060078D01*
X40343595Y-83067859D01*
X40566474Y-83116343D01*
X40810160Y-83133772D01*
X40830499Y-83135227D01*
X40830500Y-83135227D01*
X40830501Y-83135227D01*
X40849385Y-83133876D01*
X41094526Y-83116343D01*
X41353178Y-83060077D01*
X41601189Y-82967574D01*
X41833511Y-82840716D01*
X41994821Y-82719961D01*
X42026190Y-82696479D01*
X42091654Y-82672062D01*
X42159927Y-82686914D01*
X42174810Y-82696479D01*
X42367486Y-82840714D01*
X42367494Y-82840719D01*
X42599805Y-82967571D01*
X42599809Y-82967573D01*
X42599811Y-82967574D01*
X42847822Y-83060077D01*
X42847825Y-83060077D01*
X42847826Y-83060078D01*
X42883595Y-83067859D01*
X43106474Y-83116343D01*
X43350160Y-83133772D01*
X43370499Y-83135227D01*
X43370500Y-83135227D01*
X43370501Y-83135227D01*
X43389385Y-83133876D01*
X43634526Y-83116343D01*
X43893178Y-83060077D01*
X44141189Y-82967574D01*
X44373511Y-82840716D01*
X44585415Y-82682087D01*
X44772587Y-82494915D01*
X44931216Y-82283011D01*
X45058074Y-82050689D01*
X45150577Y-81802678D01*
X45206843Y-81544026D01*
X45225727Y-81280000D01*
X45206843Y-81015974D01*
X45164511Y-80821376D01*
X45150578Y-80757326D01*
X45133562Y-80711705D01*
X45058074Y-80509311D01*
X45046699Y-80488480D01*
X44931219Y-80276994D01*
X44931214Y-80276986D01*
X44772593Y-80065092D01*
X44772577Y-80065074D01*
X44585425Y-79877922D01*
X44585407Y-79877906D01*
X44373513Y-79719285D01*
X44373505Y-79719280D01*
X44141194Y-79592428D01*
X44141190Y-79592426D01*
X43893173Y-79499921D01*
X43634534Y-79443658D01*
X43634527Y-79443657D01*
X43370501Y-79424773D01*
X43370499Y-79424773D01*
X43106472Y-79443657D01*
X43106465Y-79443658D01*
X42847826Y-79499921D01*
X42599809Y-79592426D01*
X42599805Y-79592428D01*
X42367494Y-79719280D01*
X42367486Y-79719285D01*
X42174810Y-79863520D01*
X42109345Y-79887937D01*
X42041073Y-79873085D01*
X42026190Y-79863520D01*
X41833513Y-79719285D01*
X41833505Y-79719280D01*
X41601194Y-79592428D01*
X41601190Y-79592426D01*
X41353173Y-79499921D01*
X41094534Y-79443658D01*
X41094527Y-79443657D01*
X40830501Y-79424773D01*
X40830499Y-79424773D01*
X40566472Y-79443657D01*
X40566465Y-79443658D01*
X40307826Y-79499921D01*
X40059809Y-79592426D01*
X40059805Y-79592428D01*
X39827494Y-79719280D01*
X39827486Y-79719285D01*
X39634810Y-79863520D01*
X39569345Y-79887937D01*
X39501073Y-79873085D01*
X39486190Y-79863520D01*
X39293513Y-79719285D01*
X39293505Y-79719280D01*
X39061194Y-79592428D01*
X39061190Y-79592426D01*
X38813173Y-79499921D01*
X38554534Y-79443658D01*
X38554527Y-79443657D01*
X38290501Y-79424773D01*
X38290499Y-79424773D01*
X38026472Y-79443657D01*
X38026465Y-79443658D01*
X37767826Y-79499921D01*
X37519809Y-79592426D01*
X37519805Y-79592428D01*
X37287494Y-79719280D01*
X37287486Y-79719285D01*
X37075592Y-79877906D01*
X37075574Y-79877922D01*
X36888422Y-80065074D01*
X36888406Y-80065092D01*
X36729785Y-80276986D01*
X36729780Y-80276994D01*
X36602928Y-80509305D01*
X36602926Y-80509309D01*
X36510421Y-80757326D01*
X36454158Y-81015965D01*
X36454157Y-81015972D01*
X36435273Y-81279998D01*
X36435273Y-81280001D01*
X35100161Y-81280001D01*
X32166819Y-78346659D01*
X32133334Y-78285336D01*
X32130500Y-78258978D01*
X32130500Y-46455021D01*
X32150185Y-46387982D01*
X32166819Y-46367340D01*
X36715340Y-41818819D01*
X36776663Y-41785334D01*
X36803021Y-41782500D01*
X95022978Y-41782500D01*
X95090017Y-41802185D01*
X95110659Y-41818819D01*
X98416158Y-45124318D01*
X98449643Y-45185641D01*
X98444659Y-45255333D01*
X98416158Y-45299680D01*
X91262010Y-52453828D01*
X91200687Y-52487313D01*
X91130995Y-52482329D01*
X91075062Y-52440457D01*
X91050645Y-52374993D01*
X91065497Y-52306720D01*
X91071876Y-52296295D01*
X91072430Y-52295481D01*
X91072433Y-52295479D01*
X91220228Y-52078704D01*
X91334063Y-51842323D01*
X91411396Y-51591615D01*
X91450500Y-51332182D01*
X91450500Y-51069818D01*
X91411396Y-50810385D01*
X91334063Y-50559677D01*
X91322121Y-50534880D01*
X91220232Y-50323303D01*
X91220231Y-50323302D01*
X91220230Y-50323301D01*
X91220228Y-50323296D01*
X91072433Y-50106521D01*
X91056158Y-50088981D01*
X90893985Y-49914198D01*
X90837891Y-49869465D01*
X90688857Y-49750614D01*
X90461643Y-49619432D01*
X90217416Y-49523580D01*
X90217411Y-49523578D01*
X90217402Y-49523576D01*
X89999818Y-49473914D01*
X89961630Y-49465198D01*
X89961629Y-49465197D01*
X89961625Y-49465197D01*
X89961620Y-49465196D01*
X89765500Y-49450500D01*
X89765494Y-49450500D01*
X89634506Y-49450500D01*
X89634500Y-49450500D01*
X89438379Y-49465196D01*
X89438374Y-49465197D01*
X89182597Y-49523576D01*
X89182578Y-49523582D01*
X88938356Y-49619432D01*
X88711143Y-49750614D01*
X88506014Y-49914198D01*
X88327567Y-50106520D01*
X88179768Y-50323302D01*
X88179767Y-50323303D01*
X88065938Y-50559673D01*
X87988606Y-50810376D01*
X87988605Y-50810381D01*
X87988604Y-50810385D01*
X87976446Y-50891045D01*
X87949500Y-51069812D01*
X87949500Y-51332187D01*
X87967546Y-51451909D01*
X87988604Y-51591615D01*
X87988605Y-51591617D01*
X87988606Y-51591623D01*
X88065938Y-51842326D01*
X88179767Y-52078696D01*
X88179768Y-52078697D01*
X88179770Y-52078700D01*
X88179772Y-52078704D01*
X88274241Y-52217264D01*
X88327567Y-52295479D01*
X88506014Y-52487801D01*
X88506018Y-52487804D01*
X88506019Y-52487805D01*
X88711143Y-52651386D01*
X88938357Y-52782568D01*
X89182584Y-52878420D01*
X89438370Y-52936802D01*
X89438376Y-52936802D01*
X89438379Y-52936803D01*
X89634500Y-52951500D01*
X89634506Y-52951500D01*
X89765500Y-52951500D01*
X89961620Y-52936803D01*
X89961622Y-52936802D01*
X89961630Y-52936802D01*
X90217416Y-52878420D01*
X90461643Y-52782568D01*
X90688857Y-52651386D01*
X90817111Y-52549106D01*
X90881797Y-52522699D01*
X90950492Y-52535454D01*
X91001386Y-52583325D01*
X91018320Y-52651112D01*
X90995917Y-52717292D01*
X90982104Y-52733735D01*
X89050502Y-54665336D01*
X89046927Y-54668641D01*
X88999312Y-54709310D01*
X88830588Y-54906859D01*
X88694843Y-55128376D01*
X88595425Y-55368394D01*
X88536699Y-55613013D01*
X88534779Y-55621004D01*
X88514396Y-55880000D01*
X88519309Y-55942426D01*
X88519500Y-55947292D01*
X88519500Y-57986353D01*
X88499815Y-58053392D01*
X88494769Y-58060661D01*
X88482773Y-58076685D01*
X88482770Y-58076690D01*
X88345635Y-58327833D01*
X88245628Y-58595962D01*
X88184804Y-58875566D01*
X88164390Y-59160998D01*
X88164390Y-59161001D01*
X88184804Y-59446433D01*
X88245628Y-59726037D01*
X88245630Y-59726043D01*
X88245631Y-59726046D01*
X88272457Y-59797968D01*
X88345635Y-59994166D01*
X88482770Y-60245309D01*
X88482775Y-60245317D01*
X88654254Y-60474387D01*
X88654270Y-60474405D01*
X88856594Y-60676729D01*
X88856612Y-60676745D01*
X89085682Y-60848224D01*
X89085690Y-60848229D01*
X89336833Y-60985364D01*
X89336832Y-60985364D01*
X89336836Y-60985365D01*
X89336839Y-60985367D01*
X89604954Y-61085369D01*
X89604960Y-61085370D01*
X89604962Y-61085371D01*
X89884566Y-61146195D01*
X89884568Y-61146195D01*
X89884572Y-61146196D01*
X90138220Y-61164337D01*
X90169999Y-61166610D01*
X90170000Y-61166610D01*
X90170001Y-61166610D01*
X90198595Y-61164564D01*
X90455428Y-61146196D01*
X90735046Y-61085369D01*
X91003161Y-60985367D01*
X91254315Y-60848226D01*
X91483395Y-60676739D01*
X91685739Y-60474395D01*
X91857226Y-60245315D01*
X91994367Y-59994161D01*
X92094369Y-59726046D01*
X92155196Y-59446428D01*
X92175610Y-59161000D01*
X92155196Y-58875572D01*
X92135266Y-58783957D01*
X92094371Y-58595962D01*
X92094370Y-58595960D01*
X92094369Y-58595954D01*
X91994367Y-58327839D01*
X91879655Y-58117761D01*
X91857229Y-58076690D01*
X91857226Y-58076685D01*
X91845231Y-58060661D01*
X91820816Y-57995196D01*
X91820500Y-57986353D01*
X91820500Y-56615021D01*
X91840185Y-56547982D01*
X91856814Y-56527345D01*
X100750319Y-47633839D01*
X100811642Y-47600355D01*
X100881334Y-47605339D01*
X100925681Y-47633840D01*
X102973181Y-49681340D01*
X103006666Y-49742663D01*
X103009500Y-49769021D01*
X103009501Y-50576032D01*
X103009501Y-50576033D01*
X103020113Y-50695415D01*
X103076089Y-50891045D01*
X103076090Y-50891048D01*
X103076091Y-50891049D01*
X103170302Y-51071407D01*
X103170304Y-51071409D01*
X103298890Y-51229109D01*
X103392803Y-51305684D01*
X103456593Y-51357698D01*
X103636951Y-51451909D01*
X103832582Y-51507886D01*
X103951963Y-51518500D01*
X103951964Y-51518499D01*
X103951965Y-51518500D01*
X103951966Y-51518500D01*
X105501708Y-51518499D01*
X107568036Y-51518499D01*
X107687418Y-51507886D01*
X107883049Y-51451909D01*
X108063407Y-51357698D01*
X108221109Y-51229109D01*
X108349698Y-51071407D01*
X108443909Y-50891049D01*
X108499886Y-50695418D01*
X108510500Y-50576037D01*
X108510499Y-46959964D01*
X108499886Y-46840582D01*
X108443909Y-46644951D01*
X108349698Y-46464593D01*
X108270399Y-46367340D01*
X108221109Y-46306890D01*
X108063409Y-46178304D01*
X108063410Y-46178304D01*
X108063407Y-46178302D01*
X107883049Y-46084091D01*
X107883048Y-46084090D01*
X107883045Y-46084089D01*
X107765829Y-46050550D01*
X107687418Y-46028114D01*
X107687415Y-46028113D01*
X107687413Y-46028113D01*
X107596983Y-46020073D01*
X107568037Y-46017500D01*
X107568035Y-46017500D01*
X104029022Y-46017500D01*
X103961983Y-45997815D01*
X103941341Y-45981181D01*
X103084478Y-45124318D01*
X101925650Y-43965490D01*
X101922367Y-43961939D01*
X101881689Y-43914311D01*
X101834070Y-43873640D01*
X101830507Y-43870347D01*
X98938341Y-40978181D01*
X98904856Y-40916858D01*
X98909840Y-40847166D01*
X98951712Y-40791233D01*
X99017176Y-40766816D01*
X99026022Y-40766500D01*
X111532978Y-40766500D01*
X111600017Y-40786185D01*
X111620659Y-40802819D01*
X116133347Y-45315507D01*
X116136640Y-45319070D01*
X116177311Y-45366689D01*
X116374860Y-45535412D01*
X116596372Y-45671154D01*
X116596374Y-45671154D01*
X116596376Y-45671156D01*
X116657693Y-45696554D01*
X116836390Y-45770573D01*
X117089006Y-45831221D01*
X117283147Y-45846500D01*
X117348000Y-45851604D01*
X117406276Y-45847017D01*
X117410427Y-45846691D01*
X117415293Y-45846500D01*
X119637500Y-45846500D01*
X119704539Y-45866185D01*
X119750294Y-45918989D01*
X119761500Y-45970500D01*
X119761500Y-59210374D01*
X119741815Y-59277413D01*
X119733602Y-59288735D01*
X119722304Y-59302590D01*
X119628089Y-59482954D01*
X119572114Y-59678583D01*
X119572113Y-59678586D01*
X119561500Y-59797965D01*
X119561500Y-59797966D01*
X119561501Y-61417500D01*
X119541816Y-61484539D01*
X119489013Y-61530294D01*
X119437501Y-61541500D01*
X112719157Y-61541500D01*
X112671704Y-61532061D01*
X112510113Y-61465127D01*
X112265151Y-61406317D01*
X112014000Y-61386551D01*
X111762848Y-61406317D01*
X111517889Y-61465126D01*
X111285140Y-61561533D01*
X111070346Y-61693160D01*
X111070343Y-61693161D01*
X110878776Y-61856776D01*
X110715161Y-62048343D01*
X110715160Y-62048346D01*
X110583533Y-62263140D01*
X110487126Y-62495889D01*
X110428317Y-62740848D01*
X110408551Y-62992000D01*
X110428317Y-63243151D01*
X110487126Y-63488110D01*
X110583533Y-63720859D01*
X110715160Y-63935653D01*
X110715161Y-63935656D01*
X110732166Y-63955566D01*
X110878776Y-64127224D01*
X111002811Y-64233160D01*
X111070343Y-64290838D01*
X111070346Y-64290839D01*
X111285140Y-64422466D01*
X111517887Y-64518872D01*
X111517889Y-64518873D01*
X111762852Y-64577683D01*
X112014000Y-64597449D01*
X112265148Y-64577683D01*
X112510111Y-64518873D01*
X112671704Y-64451938D01*
X112719157Y-64442500D01*
X119940136Y-64442500D01*
X120007175Y-64462185D01*
X120027817Y-64478819D01*
X120197074Y-64648077D01*
X120197092Y-64648093D01*
X120408986Y-64806714D01*
X120408994Y-64806719D01*
X120641305Y-64933571D01*
X120641309Y-64933573D01*
X120641311Y-64933574D01*
X120889322Y-65026077D01*
X120889325Y-65026077D01*
X120889326Y-65026078D01*
X120934427Y-65035889D01*
X121147974Y-65082343D01*
X121391660Y-65099772D01*
X121411999Y-65101227D01*
X121412000Y-65101227D01*
X121412001Y-65101227D01*
X121430885Y-65099876D01*
X121676026Y-65082343D01*
X121934678Y-65026077D01*
X122182689Y-64933574D01*
X122415011Y-64806716D01*
X122626915Y-64648087D01*
X122814087Y-64460915D01*
X122972716Y-64249011D01*
X123099574Y-64016689D01*
X123192077Y-63768678D01*
X123248343Y-63510026D01*
X123267227Y-63246000D01*
X123248343Y-62981974D01*
X123234546Y-62918552D01*
X123192078Y-62723326D01*
X123128837Y-62553770D01*
X123099574Y-62475311D01*
X123020717Y-62330896D01*
X123005865Y-62262624D01*
X123030282Y-62197159D01*
X123033426Y-62193134D01*
X123101698Y-62109407D01*
X123195909Y-61929049D01*
X123251886Y-61733418D01*
X123262500Y-61614037D01*
X123262499Y-59797964D01*
X123251886Y-59678582D01*
X123195909Y-59482951D01*
X123101698Y-59302593D01*
X123090397Y-59288733D01*
X123063289Y-59224339D01*
X123062500Y-59210374D01*
X123062500Y-44263292D01*
X123062691Y-44258426D01*
X123067604Y-44196000D01*
X123047221Y-43937006D01*
X122986573Y-43684390D01*
X122887154Y-43444372D01*
X122751412Y-43222860D01*
X122582689Y-43025311D01*
X122385140Y-42856588D01*
X122163628Y-42720846D01*
X122163627Y-42720845D01*
X122163623Y-42720843D01*
X121997627Y-42652086D01*
X121923610Y-42621427D01*
X121923611Y-42621427D01*
X121785921Y-42588370D01*
X121670994Y-42560779D01*
X121670992Y-42560778D01*
X121670991Y-42560778D01*
X121476853Y-42545500D01*
X121474426Y-42545309D01*
X121412000Y-42540396D01*
X121411999Y-42540396D01*
X121349573Y-42545309D01*
X121344707Y-42545500D01*
X118083022Y-42545500D01*
X118015983Y-42525815D01*
X117995341Y-42509181D01*
X116252660Y-40766500D01*
X113482650Y-37996490D01*
X113479367Y-37992939D01*
X113438689Y-37945311D01*
X113241140Y-37776588D01*
X113019628Y-37640846D01*
X113019627Y-37640845D01*
X113019623Y-37640843D01*
X112853627Y-37572086D01*
X112779610Y-37541427D01*
X112779611Y-37541427D01*
X112641921Y-37508370D01*
X112526994Y-37480779D01*
X112526992Y-37480778D01*
X112526991Y-37480778D01*
X112332853Y-37465500D01*
X112330426Y-37465309D01*
X112268000Y-37460396D01*
X112267999Y-37460396D01*
X112205573Y-37465309D01*
X112200707Y-37465500D01*
X96841293Y-37465500D01*
X96836427Y-37465309D01*
X96774000Y-37460396D01*
X96709147Y-37465500D01*
X96515009Y-37480778D01*
X96262389Y-37541427D01*
X96022376Y-37640843D01*
X95800859Y-37776588D01*
X95603310Y-37945312D01*
X95562641Y-37992927D01*
X95559337Y-37996502D01*
X95110659Y-38445181D01*
X95049336Y-38478666D01*
X95022978Y-38481500D01*
X36135293Y-38481500D01*
X36130427Y-38481309D01*
X36068000Y-38476396D01*
X36003147Y-38481500D01*
X35809009Y-38496778D01*
X35556389Y-38557427D01*
X35443011Y-38604390D01*
X35316374Y-38656843D01*
X35316371Y-38656845D01*
X35094864Y-38792584D01*
X35094862Y-38792585D01*
X34897311Y-38961311D01*
X34897303Y-38961318D01*
X34856636Y-39008933D01*
X34853331Y-39012509D01*
X29360502Y-44505336D01*
X29356927Y-44508641D01*
X29309312Y-44549310D01*
X29140588Y-44746859D01*
X29004843Y-44968376D01*
X28905428Y-45208387D01*
X28905424Y-45208399D01*
X28857280Y-45408937D01*
X28844779Y-45461003D01*
X28824396Y-45720000D01*
X28829309Y-45782426D01*
X28829500Y-45787292D01*
X28829500Y-78926706D01*
X28829309Y-78931572D01*
X28824396Y-78993999D01*
X28194000Y-78993999D01*
X28194000Y-36013500D01*
X28213685Y-35946461D01*
X28266489Y-35900706D01*
X28318000Y-35889500D01*
X124514500Y-35889500D01*
X124581539Y-35909185D01*
G37*
%TD.AperFunction*%
%TD*%
M02*
